<svg id="Layer_1" data-name="Layer 1" xmlns="http://www.w3.org/2000/svg" viewBox="0 0 36.68 38.528"><defs><style>.cls-1{fill:#006ee6;}.cls-2{fill:#1e1e1e;}</style></defs><title>AIforPeople</title><path class="cls-1" d="M24.608,0L23.344,3.473a14.621,14.621,0,0,1-2.463,28.151l0.642,3.64a18.339,18.339,0,0,0,11.463-7.042V38.528H36.68V17.217A18.33,18.33,0,0,0,24.608,0Z"/><path class="cls-1" d="M3.7,17.217A14.632,14.632,0,0,1,13.338,3.472L12.074,0A18.334,18.334,0,0,0,0,17.217H0V38.528H3.7V28.221a18.348,18.348,0,0,0,11.463,7.041l0.642-3.64A14.637,14.637,0,0,1,3.7,17.217Z"/><path class="cls-2" d="M18.743,7.663a8.366,8.366,0,1,0,8.368,8.367A8.369,8.369,0,0,0,18.743,7.663ZM18.8,21.335a5.306,5.306,0,1,1,5.249-5.361A5.3,5.3,0,0,1,18.8,21.335Z"/><rect class="cls-2" x="10.374" y="16.03" width="3.063" height="10.182"/><circle class="cls-2" cx="20.417" cy="14.356" r="1.271"/></svg>