<?xml version="1.0" encoding="UTF-8"?>
<!DOCTYPE svg PUBLIC "-//W3C//DTD SVG 1.1//EN" "http://www.w3.org/Graphics/SVG/1.1/DTD/svg11.dtd">
<svg xmlns="http://www.w3.org/2000/svg" xmlns:xlink="http://www.w3.org/1999/xlink" version="1.1" width="281px" height="187px" viewBox="-0.5 -0.5 281 187"><defs/><g><g/><g><ellipse cx="66" cy="83.31" rx="5" ry="5" fill="#6666ff" stroke="#330000" transform="rotate(-30,66,83.31)" pointer-events="all"/></g><g><ellipse cx="80" cy="87.31" rx="5" ry="5" fill="#6666ff" stroke="#330000" transform="rotate(-30,80,87.31)" pointer-events="all"/></g><g><ellipse cx="77" cy="101.31" rx="5" ry="5" fill="#6666ff" stroke="#330000" transform="rotate(-30,77,101.31)" pointer-events="all"/></g><g><ellipse cx="75" cy="78.31" rx="5" ry="5" fill="#6666ff" stroke="#330000" transform="rotate(-30,75,78.31)" pointer-events="all"/></g><g><ellipse cx="72" cy="92.31" rx="5" ry="5" fill="#6666ff" stroke="#330000" transform="rotate(-30,72,92.31)" pointer-events="all"/></g><g><ellipse cx="95" cy="91.31" rx="5" ry="5" fill="#6666ff" stroke="#330000" transform="rotate(-30,95,91.31)" pointer-events="all"/></g><g><ellipse cx="90" cy="104.31" rx="5" ry="5" fill="#6666ff" stroke="#330000" transform="rotate(-30,90,104.31)" pointer-events="all"/></g><g><ellipse cx="71" cy="70.31" rx="5" ry="5" fill="#6666ff" stroke="#330000" transform="rotate(-30,71,70.31)" pointer-events="all"/></g><g><ellipse cx="84" cy="73.31" rx="5" ry="5" fill="#6666ff" stroke="#330000" transform="rotate(-30,84,73.31)" pointer-events="all"/></g><g><ellipse cx="98" cy="77.31" rx="5" ry="5" fill="#6666ff" stroke="#330000" transform="rotate(-30,98,77.31)" pointer-events="all"/></g><g><ellipse cx="112" cy="81.31" rx="5" ry="5" fill="#6666ff" stroke="#330000" transform="rotate(-30,112,81.31)" pointer-events="all"/></g><g><ellipse cx="104" cy="22.31" rx="5" ry="5" fill="#6666ff" stroke="#330000" transform="rotate(12,104,22.31)" pointer-events="all"/></g><g><ellipse cx="113" cy="35.31" rx="5" ry="5" fill="#6666ff" stroke="#330000" transform="rotate(12,113,35.31)" pointer-events="all"/></g><g><ellipse cx="99" cy="42.31" rx="5" ry="5" fill="#6666ff" stroke="#330000" transform="rotate(12,99,42.31)" pointer-events="all"/></g><g><ellipse cx="114" cy="25.31" rx="5" ry="5" fill="#6666ff" stroke="#330000" transform="rotate(12,114,25.31)" pointer-events="all"/></g><g><ellipse cx="102" cy="33.31" rx="5" ry="5" fill="#6666ff" stroke="#330000" transform="rotate(12,102,33.31)" pointer-events="all"/></g><g><ellipse cx="120" cy="47.31" rx="5" ry="5" fill="#6666ff" stroke="#330000" transform="rotate(12,120,47.31)" pointer-events="all"/></g><g><ellipse cx="108" cy="55.31" rx="5" ry="5" fill="#6666ff" stroke="#330000" transform="rotate(12,108,55.31)" pointer-events="all"/></g><g><ellipse cx="116" cy="14.31" rx="5" ry="5" fill="#6666ff" stroke="#330000" transform="rotate(12,116,14.31)" pointer-events="all"/></g><g><ellipse cx="123" cy="27.31" rx="5" ry="5" fill="#6666ff" stroke="#330000" transform="rotate(12,123,27.31)" pointer-events="all"/></g><g><ellipse cx="131" cy="39.31" rx="5" ry="5" fill="#6666ff" stroke="#330000" transform="rotate(12,131,39.31)" pointer-events="all"/></g><g><ellipse cx="138" cy="51.31" rx="5" ry="5" fill="#6666ff" stroke="#330000" transform="rotate(12,138,51.31)" pointer-events="all"/></g><g><ellipse cx="73" cy="57.31" rx="5" ry="5" fill="#6666ff" stroke="#330000" pointer-events="all"/></g><g><ellipse cx="82" cy="68.31" rx="5" ry="5" fill="#6666ff" stroke="#330000" pointer-events="all"/></g><g><ellipse cx="73" cy="78.31" rx="5" ry="5" fill="#6666ff" stroke="#330000" pointer-events="all"/></g><g><ellipse cx="82" cy="58.31" rx="5" ry="5" fill="#6666ff" stroke="#330000" pointer-events="all"/></g><g><ellipse cx="73" cy="68.31" rx="5" ry="5" fill="#6666ff" stroke="#330000" pointer-events="all"/></g><g><ellipse cx="93" cy="78.31" rx="5" ry="5" fill="#6666ff" stroke="#330000" pointer-events="all"/></g><g><ellipse cx="82" cy="88.31" rx="5" ry="5" fill="#6666ff" stroke="#330000" pointer-events="all"/></g><g><ellipse cx="83" cy="49.31" rx="5" ry="5" fill="#6666ff" stroke="#330000" pointer-events="all"/></g><g><ellipse cx="92" cy="58.31" rx="5" ry="5" fill="#6666ff" stroke="#330000" pointer-events="all"/></g><g><ellipse cx="103" cy="68.31" rx="5" ry="5" fill="#6666ff" stroke="#330000" pointer-events="all"/></g><g><ellipse cx="113" cy="79.31" rx="5" ry="5" fill="#6666ff" stroke="#330000" pointer-events="all"/></g><g><ellipse cx="90" cy="98.31" rx="5" ry="5" fill="#6666ff" stroke="#330000" transform="rotate(25,90,98.31)" pointer-events="all"/></g><g><ellipse cx="95" cy="112.31" rx="5" ry="5" fill="#6666ff" stroke="#330000" transform="rotate(25,95,112.31)" pointer-events="all"/></g><g><ellipse cx="83" cy="117.31" rx="5" ry="5" fill="#6666ff" stroke="#330000" transform="rotate(25,83,117.31)" pointer-events="all"/></g><g><ellipse cx="99" cy="102.31" rx="5" ry="5" fill="#6666ff" stroke="#330000" transform="rotate(25,99,102.31)" pointer-events="all"/></g><g><ellipse cx="87" cy="108.31" rx="5" ry="5" fill="#6666ff" stroke="#330000" transform="rotate(25,87,108.31)" pointer-events="all"/></g><g><ellipse cx="100" cy="125.31" rx="5" ry="5" fill="#6666ff" stroke="#330000" transform="rotate(25,100,125.31)" pointer-events="all"/></g><g><ellipse cx="87" cy="130.31" rx="5" ry="5" fill="#6666ff" stroke="#330000" transform="rotate(25,87,130.31)" pointer-events="all"/></g><g><ellipse cx="104" cy="94.31" rx="5" ry="5" fill="#6666ff" stroke="#330000" transform="rotate(25,104,94.31)" pointer-events="all"/></g><g><ellipse cx="108" cy="107.31" rx="5" ry="5" fill="#6666ff" stroke="#330000" transform="rotate(25,108,107.31)" pointer-events="all"/></g><g><ellipse cx="113" cy="120.31" rx="5" ry="5" fill="#6666ff" stroke="#330000" transform="rotate(25,113,120.31)" pointer-events="all"/></g><g><ellipse cx="118" cy="133.31" rx="5" ry="5" fill="#6666ff" stroke="#330000" transform="rotate(25,118,133.31)" pointer-events="all"/></g><g><ellipse cx="115" cy="89.31" rx="5" ry="5" fill="#6666ff" stroke="#330000" transform="rotate(55,115,89.31)" pointer-events="all"/></g><g><ellipse cx="112" cy="103.31" rx="5" ry="5" fill="#6666ff" stroke="#330000" transform="rotate(55,112,103.31)" pointer-events="all"/></g><g><ellipse cx="98" cy="101.31" rx="5" ry="5" fill="#6666ff" stroke="#330000" transform="rotate(55,98,101.31)" pointer-events="all"/></g><g><ellipse cx="120" cy="97.31" rx="5" ry="5" fill="#6666ff" stroke="#330000" transform="rotate(55,120,97.31)" pointer-events="all"/></g><g><ellipse cx="106" cy="95.31" rx="5" ry="5" fill="#6666ff" stroke="#330000" transform="rotate(55,106,95.31)" pointer-events="all"/></g><g><ellipse cx="109" cy="117.31" rx="5" ry="5" fill="#6666ff" stroke="#330000" transform="rotate(55,109,117.31)" pointer-events="all"/></g><g><ellipse cx="95" cy="114.31" rx="5" ry="5" fill="#6666ff" stroke="#330000" transform="rotate(55,95,114.31)" pointer-events="all"/></g><g><ellipse cx="129" cy="92.31" rx="5" ry="5" fill="#6666ff" stroke="#330000" transform="rotate(55,129,92.31)" pointer-events="all"/></g><g><ellipse cx="126" cy="105.31" rx="5" ry="5" fill="#6666ff" stroke="#330000" transform="rotate(55,126,105.31)" pointer-events="all"/></g><g><ellipse cx="124" cy="120.31" rx="5" ry="5" fill="#6666ff" stroke="#330000" transform="rotate(55,124,120.31)" pointer-events="all"/></g><g><ellipse cx="120" cy="134.31" rx="5" ry="5" fill="#6666ff" stroke="#330000" transform="rotate(55,120,134.31)" pointer-events="all"/></g><g><ellipse cx="125" cy="8.31" rx="5" ry="5" fill="#6666ff" stroke="#330000" transform="rotate(42,125,8.31)" pointer-events="all"/></g><g><ellipse cx="126" cy="23.31" rx="5" ry="5" fill="#6666ff" stroke="#330000" transform="rotate(42,126,23.31)" pointer-events="all"/></g><g><ellipse cx="113" cy="24.31" rx="5" ry="5" fill="#6666ff" stroke="#330000" transform="rotate(42,113,24.31)" pointer-events="all"/></g><g><ellipse cx="132" cy="15.31" rx="5" ry="5" fill="#6666ff" stroke="#330000" transform="rotate(42,132,15.31)" pointer-events="all"/></g><g><ellipse cx="119" cy="16.31" rx="5" ry="5" fill="#6666ff" stroke="#330000" transform="rotate(42,119,16.31)" pointer-events="all"/></g><g><ellipse cx="128" cy="37.31" rx="5" ry="5" fill="#6666ff" stroke="#330000" transform="rotate(42,128,37.31)" pointer-events="all"/></g><g><ellipse cx="112" cy="38.31" rx="5" ry="5" fill="#6666ff" stroke="#330000" transform="rotate(42,112,38.31)" pointer-events="all"/></g><g><ellipse cx="139" cy="9.31" rx="5" ry="5" fill="#6666ff" stroke="#330000" transform="rotate(42,139,9.31)" pointer-events="all"/></g><g><ellipse cx="140" cy="22.31" rx="5" ry="5" fill="#6666ff" stroke="#330000" transform="rotate(42,140,22.31)" pointer-events="all"/></g><g><ellipse cx="141" cy="36.31" rx="5" ry="5" fill="#6666ff" stroke="#330000" transform="rotate(42,141,36.31)" pointer-events="all"/></g><g><ellipse cx="143" cy="51.31" rx="5" ry="5" fill="#6666ff" stroke="#330000" transform="rotate(42,143,51.31)" pointer-events="all"/></g><g><ellipse cx="111" cy="49.31" rx="5" ry="5" fill="#6666ff" stroke="#330000" transform="rotate(67,111,49.31)" pointer-events="all"/></g><g><ellipse cx="106" cy="63.31" rx="5" ry="5" fill="#6666ff" stroke="#330000" transform="rotate(67,106,63.31)" pointer-events="all"/></g><g><ellipse cx="93" cy="59.31" rx="5" ry="5" fill="#6666ff" stroke="#330000" transform="rotate(67,93,59.31)" pointer-events="all"/></g><g><ellipse cx="115" cy="59.31" rx="5" ry="5" fill="#6666ff" stroke="#330000" transform="rotate(67,115,59.31)" pointer-events="all"/></g><g><ellipse cx="103" cy="55.31" rx="5" ry="5" fill="#6666ff" stroke="#330000" transform="rotate(67,103,55.31)" pointer-events="all"/></g><g><ellipse cx="100" cy="77.31" rx="5" ry="5" fill="#6666ff" stroke="#330000" transform="rotate(67,100,77.31)" pointer-events="all"/></g><g><ellipse cx="87" cy="72.31" rx="5" ry="5" fill="#6666ff" stroke="#330000" transform="rotate(67,87,72.31)" pointer-events="all"/></g><g><ellipse cx="123" cy="56.31" rx="5" ry="5" fill="#6666ff" stroke="#330000" transform="rotate(67,123,56.31)" pointer-events="all"/></g><g><ellipse cx="119" cy="68.31" rx="5" ry="5" fill="#6666ff" stroke="#330000" transform="rotate(67,119,68.31)" pointer-events="all"/></g><g><ellipse cx="113" cy="82.31" rx="5" ry="5" fill="#6666ff" stroke="#330000" transform="rotate(67,113,82.31)" pointer-events="all"/></g><g><ellipse cx="110" cy="95.31" rx="5" ry="5" fill="#6666ff" stroke="#330000" transform="rotate(67,110,95.31)" pointer-events="all"/></g><g><ellipse cx="136" cy="59.31" rx="5" ry="5" fill="#6666ff" stroke="#330000" transform="rotate(97,136,59.31)" pointer-events="all"/></g><g><ellipse cx="124" cy="68.31" rx="5" ry="5" fill="#6666ff" stroke="#330000" transform="rotate(97,124,68.31)" pointer-events="all"/></g><g><ellipse cx="113" cy="56.31" rx="5" ry="5" fill="#6666ff" stroke="#330000" transform="rotate(97,113,56.31)" pointer-events="all"/></g><g><ellipse cx="133" cy="69.31" rx="5" ry="5" fill="#6666ff" stroke="#330000" transform="rotate(97,133,69.31)" pointer-events="all"/></g><g><ellipse cx="125" cy="58.31" rx="5" ry="5" fill="#6666ff" stroke="#330000" transform="rotate(97,125,58.31)" pointer-events="all"/></g><g><ellipse cx="112" cy="76.31" rx="5" ry="5" fill="#6666ff" stroke="#330000" transform="rotate(97,112,76.31)" pointer-events="all"/></g><g><ellipse cx="104" cy="64.31" rx="5" ry="5" fill="#6666ff" stroke="#330000" transform="rotate(97,104,64.31)" pointer-events="all"/></g><g><ellipse cx="144" cy="69.31" rx="5" ry="5" fill="#6666ff" stroke="#330000" transform="rotate(97,144,69.31)" pointer-events="all"/></g><g><ellipse cx="132" cy="79.31" rx="5" ry="5" fill="#6666ff" stroke="#330000" transform="rotate(97,132,79.31)" pointer-events="all"/></g><g><ellipse cx="122" cy="88.31" rx="5" ry="5" fill="#6666ff" stroke="#330000" transform="rotate(97,122,88.31)" pointer-events="all"/></g><g><ellipse cx="109" cy="96.31" rx="5" ry="5" fill="#6666ff" stroke="#330000" transform="rotate(97,109,96.31)" pointer-events="all"/></g><g><ellipse cx="142" cy="48.31" rx="5" ry="5" fill="#6666ff" stroke="#330000" transform="rotate(10,142,48.31)" pointer-events="all"/></g><g><ellipse cx="162" cy="52.31" rx="5" ry="5" fill="#6666ff" stroke="#330000" transform="rotate(10,162,52.31)" pointer-events="all"/></g><g><ellipse cx="150" cy="60.31" rx="5" ry="5" fill="#6666ff" stroke="#330000" transform="rotate(10,150,60.31)" pointer-events="all"/></g><g><ellipse cx="182" cy="55.31" rx="5" ry="5" fill="#6666ff" stroke="#330000" transform="rotate(10,182,55.31)" pointer-events="all"/></g><g><ellipse cx="154" cy="56.31" rx="5" ry="5" fill="#6666ff" stroke="#330000" transform="rotate(65,154,56.31)" pointer-events="all"/></g><g><ellipse cx="150" cy="69.31" rx="5" ry="5" fill="#6666ff" stroke="#330000" transform="rotate(65,150,69.31)" pointer-events="all"/></g><g><ellipse cx="136" cy="65.31" rx="5" ry="5" fill="#6666ff" stroke="#330000" transform="rotate(65,136,65.31)" pointer-events="all"/></g><g><ellipse cx="158" cy="64.31" rx="5" ry="5" fill="#6666ff" stroke="#330000" transform="rotate(65,158,64.31)" pointer-events="all"/></g><g><ellipse cx="145" cy="61.31" rx="5" ry="5" fill="#6666ff" stroke="#330000" transform="rotate(65,145,61.31)" pointer-events="all"/></g><g><ellipse cx="145" cy="83.31" rx="5" ry="5" fill="#6666ff" stroke="#330000" transform="rotate(65,145,83.31)" pointer-events="all"/></g><g><ellipse cx="131" cy="78.31" rx="5" ry="5" fill="#6666ff" stroke="#330000" transform="rotate(65,131,78.31)" pointer-events="all"/></g><g><ellipse cx="168" cy="61.31" rx="5" ry="5" fill="#6666ff" stroke="#330000" transform="rotate(65,168,61.31)" pointer-events="all"/></g><g><ellipse cx="162" cy="73.31" rx="5" ry="5" fill="#6666ff" stroke="#330000" transform="rotate(65,162,73.31)" pointer-events="all"/></g><g><ellipse cx="158" cy="87.31" rx="5" ry="5" fill="#6666ff" stroke="#330000" transform="rotate(65,158,87.31)" pointer-events="all"/></g><g><ellipse cx="153" cy="101.31" rx="5" ry="5" fill="#6666ff" stroke="#330000" transform="rotate(65,153,101.31)" pointer-events="all"/></g><g><ellipse cx="182" cy="57.31" rx="5" ry="5" fill="#6666ff" stroke="#330000" transform="rotate(107,182,57.31)" pointer-events="all"/></g><g><ellipse cx="170" cy="65.31" rx="5" ry="5" fill="#6666ff" stroke="#330000" transform="rotate(107,170,65.31)" pointer-events="all"/></g><g><ellipse cx="213" cy="67.31" rx="5" ry="5" fill="#6666ff" stroke="#330000" transform="rotate(137,213,67.31)" pointer-events="all"/></g><g><ellipse cx="199" cy="68.31" rx="5" ry="5" fill="#6666ff" stroke="#330000" transform="rotate(137,199,68.31)" pointer-events="all"/></g><g><ellipse cx="185" cy="68.31" rx="5" ry="5" fill="#6666ff" stroke="#330000" transform="rotate(137,185,68.31)" pointer-events="all"/></g><g><ellipse cx="170" cy="66.31" rx="5" ry="5" fill="#6666ff" stroke="#330000" transform="rotate(137,170,66.31)" pointer-events="all"/></g><g><ellipse cx="178" cy="65.31" rx="5" ry="5" fill="#6666ff" stroke="#330000" transform="rotate(95,178,65.31)" pointer-events="all"/></g><g><ellipse cx="167" cy="73.31" rx="5" ry="5" fill="#6666ff" stroke="#330000" transform="rotate(95,167,73.31)" pointer-events="all"/></g><g><ellipse cx="158" cy="63.31" rx="5" ry="5" fill="#6666ff" stroke="#330000" transform="rotate(95,158,63.31)" pointer-events="all"/></g><g><ellipse cx="177" cy="74.31" rx="5" ry="5" fill="#6666ff" stroke="#330000" transform="rotate(95,177,74.31)" pointer-events="all"/></g><g><ellipse cx="167" cy="63.31" rx="5" ry="5" fill="#6666ff" stroke="#330000" transform="rotate(95,167,63.31)" pointer-events="all"/></g><g><ellipse cx="156" cy="82.31" rx="5" ry="5" fill="#6666ff" stroke="#330000" transform="rotate(95,156,82.31)" pointer-events="all"/></g><g><ellipse cx="147" cy="71.31" rx="5" ry="5" fill="#6666ff" stroke="#330000" transform="rotate(95,147,71.31)" pointer-events="all"/></g><g><ellipse cx="187" cy="75.31" rx="5" ry="5" fill="#6666ff" stroke="#330000" transform="rotate(95,187,75.31)" pointer-events="all"/></g><g><ellipse cx="176" cy="84.31" rx="5" ry="5" fill="#6666ff" stroke="#330000" transform="rotate(95,176,84.31)" pointer-events="all"/></g><g><ellipse cx="165" cy="93.31" rx="5" ry="5" fill="#6666ff" stroke="#330000" transform="rotate(95,165,93.31)" pointer-events="all"/></g><g><ellipse cx="154" cy="102.31" rx="5" ry="5" fill="#6666ff" stroke="#330000" transform="rotate(95,154,102.31)" pointer-events="all"/></g><g><ellipse cx="151" cy="24.31" rx="5" ry="5" fill="#6666ff" stroke="#330000" transform="rotate(50,151,24.31)" pointer-events="all"/></g><g><ellipse cx="151" cy="37.31" rx="5" ry="5" fill="#6666ff" stroke="#330000" transform="rotate(50,151,37.31)" pointer-events="all"/></g><g><ellipse cx="157" cy="32.31" rx="5" ry="5" fill="#6666ff" stroke="#330000" transform="rotate(50,157,32.31)" pointer-events="all"/></g><g><ellipse cx="144" cy="30.31" rx="5" ry="5" fill="#6666ff" stroke="#330000" transform="rotate(50,144,30.31)" pointer-events="all"/></g><g><ellipse cx="166" cy="24.31" rx="5" ry="5" fill="#6666ff" stroke="#330000" transform="rotate(50,166,24.31)" pointer-events="all"/></g><g><ellipse cx="163" cy="40.31" rx="5" ry="5" fill="#6666ff" stroke="#330000" transform="rotate(50,163,40.31)" pointer-events="all"/></g><g><ellipse cx="177" cy="25.31" rx="5" ry="5" fill="#6666ff" stroke="#330000" transform="rotate(80,177,25.31)" pointer-events="all"/></g><g><ellipse cx="168" cy="39.31" rx="5" ry="5" fill="#6666ff" stroke="#330000" transform="rotate(80,168,39.31)" pointer-events="all"/></g><g><ellipse cx="158" cy="30.31" rx="5" ry="5" fill="#6666ff" stroke="#330000" transform="rotate(80,158,30.31)" pointer-events="all"/></g><g><ellipse cx="178" cy="36.31" rx="5" ry="5" fill="#6666ff" stroke="#330000" transform="rotate(80,178,36.31)" pointer-events="all"/></g><g><ellipse cx="166" cy="28.31" rx="5" ry="5" fill="#6666ff" stroke="#330000" transform="rotate(80,166,28.31)" pointer-events="all"/></g><g><ellipse cx="148" cy="42.31" rx="5" ry="5" fill="#6666ff" stroke="#330000" transform="rotate(80,148,42.31)" pointer-events="all"/></g><g><ellipse cx="188" cy="35.31" rx="5" ry="5" fill="#6666ff" stroke="#330000" transform="rotate(80,188,35.31)" pointer-events="all"/></g><g><ellipse cx="180" cy="44.31" rx="5" ry="5" fill="#6666ff" stroke="#330000" transform="rotate(80,180,44.31)" pointer-events="all"/></g><g/><g><ellipse cx="69" cy="56" rx="5" ry="5" fill="#ff6666" stroke="rgb(0, 0, 0)" pointer-events="all"/></g><g><ellipse cx="79" cy="66" rx="5" ry="5" fill="#ff6666" stroke="rgb(0, 0, 0)" pointer-events="all"/></g><g><ellipse cx="89" cy="76" rx="5" ry="5" fill="#ff6666" stroke="rgb(0, 0, 0)" pointer-events="all"/></g><g><ellipse cx="99" cy="86" rx="5" ry="5" fill="#ff6666" stroke="rgb(0, 0, 0)" pointer-events="all"/></g><g><ellipse cx="109" cy="96" rx="5" ry="5" fill="#ff6666" stroke="rgb(0, 0, 0)" pointer-events="all"/></g><g><ellipse cx="59" cy="76" rx="5" ry="5" fill="#ff6666" stroke="rgb(0, 0, 0)" pointer-events="all"/></g><g><ellipse cx="69" cy="86" rx="5" ry="5" fill="#ff6666" stroke="rgb(0, 0, 0)" pointer-events="all"/></g><g><ellipse cx="69" cy="70.33" rx="5" ry="5" fill="#ff6666" stroke="rgb(0, 0, 0)" pointer-events="all"/></g><g><ellipse cx="79" cy="80.33" rx="5" ry="5" fill="#ff6666" stroke="rgb(0, 0, 0)" pointer-events="all"/></g><g><ellipse cx="59" cy="66" rx="5" ry="5" fill="#ff6666" stroke="rgb(0, 0, 0)" pointer-events="all"/></g><g/><g><ellipse cx="101" cy="44" rx="5" ry="5" fill="#ff6666" stroke="rgb(0, 0, 0)" transform="rotate(66,101,44)" pointer-events="all"/></g><g><ellipse cx="96" cy="57" rx="5" ry="5" fill="#ff6666" stroke="rgb(0, 0, 0)" transform="rotate(66,96,57)" pointer-events="all"/></g><g><ellipse cx="91" cy="71" rx="5" ry="5" fill="#ff6666" stroke="rgb(0, 0, 0)" transform="rotate(66,91,71)" pointer-events="all"/></g><g><ellipse cx="86" cy="84" rx="5" ry="5" fill="#ff6666" stroke="rgb(0, 0, 0)" transform="rotate(66,86,84)" pointer-events="all"/></g><g><ellipse cx="81" cy="97" rx="5" ry="5" fill="#ff6666" stroke="rgb(0, 0, 0)" transform="rotate(66,81,97)" pointer-events="all"/></g><g><ellipse cx="79" cy="43" rx="5" ry="5" fill="#ff6666" stroke="rgb(0, 0, 0)" transform="rotate(66,79,43)" pointer-events="all"/></g><g><ellipse cx="74" cy="56" rx="5" ry="5" fill="#ff6666" stroke="rgb(0, 0, 0)" transform="rotate(66,74,56)" pointer-events="all"/></g><g><ellipse cx="88" cy="50" rx="5" ry="5" fill="#ff6666" stroke="rgb(0, 0, 0)" transform="rotate(66,88,50)" pointer-events="all"/></g><g><ellipse cx="83" cy="63" rx="5" ry="5" fill="#ff6666" stroke="rgb(0, 0, 0)" transform="rotate(66,83,63)" pointer-events="all"/></g><g><ellipse cx="88" cy="39" rx="5" ry="5" fill="#ff6666" stroke="rgb(0, 0, 0)" transform="rotate(66,88,39)" pointer-events="all"/></g><g><ellipse cx="44" cy="71" rx="5" ry="5" fill="#ff6666" stroke="rgb(0, 0, 0)" pointer-events="all"/></g><g><ellipse cx="54" cy="81" rx="5" ry="5" fill="#ff6666" stroke="rgb(0, 0, 0)" pointer-events="all"/></g><g><ellipse cx="64" cy="91" rx="5" ry="5" fill="#ff6666" stroke="rgb(0, 0, 0)" pointer-events="all"/></g><g><ellipse cx="74" cy="101" rx="5" ry="5" fill="#ff6666" stroke="rgb(0, 0, 0)" pointer-events="all"/></g><g><ellipse cx="84" cy="111" rx="5" ry="5" fill="#ff6666" stroke="rgb(0, 0, 0)" pointer-events="all"/></g><g><ellipse cx="34" cy="91" rx="5" ry="5" fill="#ff6666" stroke="rgb(0, 0, 0)" pointer-events="all"/></g><g><ellipse cx="44" cy="101" rx="5" ry="5" fill="#ff6666" stroke="rgb(0, 0, 0)" pointer-events="all"/></g><g><ellipse cx="44" cy="85.33" rx="5" ry="5" fill="#ff6666" stroke="rgb(0, 0, 0)" pointer-events="all"/></g><g><ellipse cx="54" cy="95.33" rx="5" ry="5" fill="#ff6666" stroke="rgb(0, 0, 0)" pointer-events="all"/></g><g><ellipse cx="34" cy="81" rx="5" ry="5" fill="#ff6666" stroke="rgb(0, 0, 0)" pointer-events="all"/></g><g/><g><ellipse cx="76" cy="59" rx="5" ry="5" fill="#ff6666" stroke="rgb(0, 0, 0)" transform="rotate(66,76,59)" pointer-events="all"/></g><g><ellipse cx="71" cy="72" rx="5" ry="5" fill="#ff6666" stroke="rgb(0, 0, 0)" transform="rotate(66,71,72)" pointer-events="all"/></g><g><ellipse cx="66" cy="86" rx="5" ry="5" fill="#ff6666" stroke="rgb(0, 0, 0)" transform="rotate(66,66,86)" pointer-events="all"/></g><g><ellipse cx="61" cy="99" rx="5" ry="5" fill="#ff6666" stroke="rgb(0, 0, 0)" transform="rotate(66,61,99)" pointer-events="all"/></g><g><ellipse cx="56" cy="112" rx="5" ry="5" fill="#ff6666" stroke="rgb(0, 0, 0)" transform="rotate(66,56,112)" pointer-events="all"/></g><g><ellipse cx="54" cy="58" rx="5" ry="5" fill="#ff6666" stroke="rgb(0, 0, 0)" transform="rotate(66,54,58)" pointer-events="all"/></g><g><ellipse cx="49" cy="71" rx="5" ry="5" fill="#ff6666" stroke="rgb(0, 0, 0)" transform="rotate(66,49,71)" pointer-events="all"/></g><g><ellipse cx="63" cy="65" rx="5" ry="5" fill="#ff6666" stroke="rgb(0, 0, 0)" transform="rotate(66,63,65)" pointer-events="all"/></g><g><ellipse cx="58" cy="78" rx="5" ry="5" fill="#ff6666" stroke="rgb(0, 0, 0)" transform="rotate(66,58,78)" pointer-events="all"/></g><g><ellipse cx="63" cy="54" rx="5" ry="5" fill="#ff6666" stroke="rgb(0, 0, 0)" transform="rotate(66,63,54)" pointer-events="all"/></g><g/><g><ellipse cx="92.46" cy="104" rx="5" ry="5" fill="#ff6666" stroke="rgb(0, 0, 0)" transform="rotate(50,92.46,104)" pointer-events="all"/></g><g><ellipse cx="91.46" cy="118" rx="5" ry="5" fill="#ff6666" stroke="rgb(0, 0, 0)" transform="rotate(50,91.46,118)" pointer-events="all"/></g><g><ellipse cx="90.46" cy="132" rx="5" ry="5" fill="#ff6666" stroke="rgb(0, 0, 0)" transform="rotate(50,90.46,132)" pointer-events="all"/></g><g><ellipse cx="88.46" cy="146" rx="5" ry="5" fill="#ff6666" stroke="rgb(0, 0, 0)" transform="rotate(50,88.46,146)" pointer-events="all"/></g><g><ellipse cx="87.46" cy="160" rx="5" ry="5" fill="#ff6666" stroke="rgb(0, 0, 0)" transform="rotate(50,87.46,160)" pointer-events="all"/></g><g><ellipse cx="70.46" cy="109" rx="5" ry="5" fill="#ff6666" stroke="rgb(0, 0, 0)" transform="rotate(50,70.46,109)" pointer-events="all"/></g><g><ellipse cx="69.46" cy="123" rx="5" ry="5" fill="#ff6666" stroke="rgb(0, 0, 0)" transform="rotate(50,69.46,123)" pointer-events="all"/></g><g><ellipse cx="81.46" cy="113" rx="5" ry="5" fill="#ff6666" stroke="rgb(0, 0, 0)" transform="rotate(50,81.46,113)" pointer-events="all"/></g><g><ellipse cx="80.46" cy="127" rx="5" ry="5" fill="#ff6666" stroke="rgb(0, 0, 0)" transform="rotate(50,80.46,127)" pointer-events="all"/></g><g><ellipse cx="78.46" cy="103" rx="5" ry="5" fill="#ff6666" stroke="rgb(0, 0, 0)" transform="rotate(50,78.46,103)" pointer-events="all"/></g><g/><g><ellipse cx="122.46" cy="121" rx="5" ry="5" fill="#ff6666" stroke="rgb(0, 0, 0)" transform="rotate(116,122.46,121)" pointer-events="all"/></g><g><ellipse cx="108.46" cy="126" rx="5" ry="5" fill="#ff6666" stroke="rgb(0, 0, 0)" transform="rotate(116,108.46,126)" pointer-events="all"/></g><g><ellipse cx="94.46" cy="131" rx="5" ry="5" fill="#ff6666" stroke="rgb(0, 0, 0)" transform="rotate(116,94.46,131)" pointer-events="all"/></g><g><ellipse cx="81.46" cy="135" rx="5" ry="5" fill="#ff6666" stroke="rgb(0, 0, 0)" transform="rotate(116,81.46,135)" pointer-events="all"/></g><g><ellipse cx="68.46" cy="140" rx="5" ry="5" fill="#ff6666" stroke="rgb(0, 0, 0)" transform="rotate(116,68.46,140)" pointer-events="all"/></g><g><ellipse cx="108.46" cy="104" rx="5" ry="5" fill="#ff6666" stroke="rgb(0, 0, 0)" transform="rotate(116,108.46,104)" pointer-events="all"/></g><g><ellipse cx="95.46" cy="108" rx="5" ry="5" fill="#ff6666" stroke="rgb(0, 0, 0)" transform="rotate(116,95.46,108)" pointer-events="all"/></g><g><ellipse cx="109.46" cy="115" rx="5" ry="5" fill="#ff6666" stroke="rgb(0, 0, 0)" transform="rotate(116,109.46,115)" pointer-events="all"/></g><g><ellipse cx="95.46" cy="119" rx="5" ry="5" fill="#ff6666" stroke="rgb(0, 0, 0)" transform="rotate(116,95.46,119)" pointer-events="all"/></g><g><ellipse cx="117.46" cy="108" rx="5" ry="5" fill="#ff6666" stroke="rgb(0, 0, 0)" transform="rotate(116,117.46,108)" pointer-events="all"/></g><g><ellipse cx="65.46" cy="95" rx="5" ry="5" fill="#ff6666" stroke="rgb(0, 0, 0)" transform="rotate(50,65.46,95)" pointer-events="all"/></g><g><ellipse cx="63.46" cy="109" rx="5" ry="5" fill="#ff6666" stroke="rgb(0, 0, 0)" transform="rotate(50,63.46,109)" pointer-events="all"/></g><g><ellipse cx="62.46" cy="123" rx="5" ry="5" fill="#ff6666" stroke="rgb(0, 0, 0)" transform="rotate(50,62.46,123)" pointer-events="all"/></g><g><ellipse cx="61.46" cy="137" rx="5" ry="5" fill="#ff6666" stroke="rgb(0, 0, 0)" transform="rotate(50,61.46,137)" pointer-events="all"/></g><g><ellipse cx="60.46" cy="151" rx="5" ry="5" fill="#ff6666" stroke="rgb(0, 0, 0)" transform="rotate(50,60.46,151)" pointer-events="all"/></g><g><ellipse cx="43.46" cy="100" rx="5" ry="5" fill="#ff6666" stroke="rgb(0, 0, 0)" transform="rotate(50,43.46,100)" pointer-events="all"/></g><g><ellipse cx="42.46" cy="114" rx="5" ry="5" fill="#ff6666" stroke="rgb(0, 0, 0)" transform="rotate(50,42.46,114)" pointer-events="all"/></g><g><ellipse cx="54.46" cy="104" rx="5" ry="5" fill="#ff6666" stroke="rgb(0, 0, 0)" transform="rotate(50,54.46,104)" pointer-events="all"/></g><g><ellipse cx="52.46" cy="118" rx="5" ry="5" fill="#ff6666" stroke="rgb(0, 0, 0)" transform="rotate(50,52.46,118)" pointer-events="all"/></g><g><ellipse cx="50.46" cy="93" rx="5" ry="5" fill="#ff6666" stroke="rgb(0, 0, 0)" transform="rotate(50,50.46,93)" pointer-events="all"/></g><g/><g><ellipse cx="95.46" cy="111" rx="5" ry="5" fill="#ff6666" stroke="rgb(0, 0, 0)" transform="rotate(116,95.46,111)" pointer-events="all"/></g><g><ellipse cx="81.46" cy="116" rx="5" ry="5" fill="#ff6666" stroke="rgb(0, 0, 0)" transform="rotate(116,81.46,116)" pointer-events="all"/></g><g><ellipse cx="67.46" cy="121" rx="5" ry="5" fill="#ff6666" stroke="rgb(0, 0, 0)" transform="rotate(116,67.46,121)" pointer-events="all"/></g><g><ellipse cx="54.46" cy="125" rx="5" ry="5" fill="#ff6666" stroke="rgb(0, 0, 0)" transform="rotate(116,54.46,125)" pointer-events="all"/></g><g><ellipse cx="41.46" cy="130" rx="5" ry="5" fill="#ff6666" stroke="rgb(0, 0, 0)" transform="rotate(116,41.46,130)" pointer-events="all"/></g><g><ellipse cx="81.46" cy="94" rx="5" ry="5" fill="#ff6666" stroke="rgb(0, 0, 0)" transform="rotate(116,81.46,94)" pointer-events="all"/></g><g><ellipse cx="68.46" cy="98" rx="5" ry="5" fill="#ff6666" stroke="rgb(0, 0, 0)" transform="rotate(116,68.46,98)" pointer-events="all"/></g><g><ellipse cx="82.46" cy="105" rx="5" ry="5" fill="#ff6666" stroke="rgb(0, 0, 0)" transform="rotate(116,82.46,105)" pointer-events="all"/></g><g><ellipse cx="68.46" cy="109" rx="5" ry="5" fill="#ff6666" stroke="rgb(0, 0, 0)" transform="rotate(116,68.46,109)" pointer-events="all"/></g><g><ellipse cx="90.46" cy="98" rx="5" ry="5" fill="#ff6666" stroke="rgb(0, 0, 0)" transform="rotate(116,90.46,98)" pointer-events="all"/></g><g/><g><ellipse cx="49.4" cy="45.73" rx="5" ry="5" fill="#ff6666" stroke="rgb(0, 0, 0)" transform="rotate(56,49.4,45.73)" pointer-events="all"/></g><g><ellipse cx="46.4" cy="59.73" rx="5" ry="5" fill="#ff6666" stroke="rgb(0, 0, 0)" transform="rotate(56,46.4,59.73)" pointer-events="all"/></g><g><ellipse cx="43.4" cy="72.73" rx="5" ry="5" fill="#ff6666" stroke="rgb(0, 0, 0)" transform="rotate(56,43.4,72.73)" pointer-events="all"/></g><g><ellipse cx="41.4" cy="86.73" rx="5" ry="5" fill="#ff6666" stroke="rgb(0, 0, 0)" transform="rotate(56,41.4,86.73)" pointer-events="all"/></g><g><ellipse cx="27.4" cy="48.73" rx="5" ry="5" fill="#ff6666" stroke="rgb(0, 0, 0)" transform="rotate(56,27.4,48.73)" pointer-events="all"/></g><g><ellipse cx="24.4" cy="61.73" rx="5" ry="5" fill="#ff6666" stroke="rgb(0, 0, 0)" transform="rotate(56,24.4,61.73)" pointer-events="all"/></g><g><ellipse cx="37.4" cy="53.73" rx="5" ry="5" fill="#ff6666" stroke="rgb(0, 0, 0)" transform="rotate(56,37.4,53.73)" pointer-events="all"/></g><g><ellipse cx="34.4" cy="67.73" rx="5" ry="5" fill="#ff6666" stroke="rgb(0, 0, 0)" transform="rotate(56,34.4,67.73)" pointer-events="all"/></g><g><ellipse cx="35.4" cy="42.73" rx="5" ry="5" fill="#ff6666" stroke="rgb(0, 0, 0)" transform="rotate(56,35.4,42.73)" pointer-events="all"/></g><g><ellipse cx="77.4" cy="64.73" rx="5" ry="5" fill="#ff6666" stroke="rgb(0, 0, 0)" transform="rotate(122,77.4,64.73)" pointer-events="all"/></g><g><ellipse cx="63.4" cy="68.73" rx="5" ry="5" fill="#ff6666" stroke="rgb(0, 0, 0)" transform="rotate(122,63.4,68.73)" pointer-events="all"/></g><g><ellipse cx="49.4" cy="71.73" rx="5" ry="5" fill="#ff6666" stroke="rgb(0, 0, 0)" transform="rotate(122,49.4,71.73)" pointer-events="all"/></g><g><ellipse cx="35.4" cy="74.73" rx="5" ry="5" fill="#ff6666" stroke="rgb(0, 0, 0)" transform="rotate(122,35.4,74.73)" pointer-events="all"/></g><g><ellipse cx="65.4" cy="46.73" rx="5" ry="5" fill="#ff6666" stroke="rgb(0, 0, 0)" transform="rotate(122,65.4,46.73)" pointer-events="all"/></g><g><ellipse cx="51.4" cy="49.73" rx="5" ry="5" fill="#ff6666" stroke="rgb(0, 0, 0)" transform="rotate(122,51.4,49.73)" pointer-events="all"/></g><g><ellipse cx="64.4" cy="57.73" rx="5" ry="5" fill="#ff6666" stroke="rgb(0, 0, 0)" transform="rotate(122,64.4,57.73)" pointer-events="all"/></g><g><ellipse cx="51.4" cy="60.73" rx="5" ry="5" fill="#ff6666" stroke="rgb(0, 0, 0)" transform="rotate(122,51.4,60.73)" pointer-events="all"/></g><g><ellipse cx="73.4" cy="51.73" rx="5" ry="5" fill="#ff6666" stroke="rgb(0, 0, 0)" transform="rotate(122,73.4,51.73)" pointer-events="all"/></g><g><ellipse cx="22.4" cy="32.73" rx="5" ry="5" fill="#ff6666" stroke="rgb(0, 0, 0)" transform="rotate(56,22.4,32.73)" pointer-events="all"/></g><g><ellipse cx="20.4" cy="46.73" rx="5" ry="5" fill="#ff6666" stroke="rgb(0, 0, 0)" transform="rotate(56,20.4,46.73)" pointer-events="all"/></g><g><ellipse cx="17.4" cy="60.73" rx="5" ry="5" fill="#ff6666" stroke="rgb(0, 0, 0)" transform="rotate(56,17.4,60.73)" pointer-events="all"/></g><g><ellipse cx="10.4" cy="40.73" rx="5" ry="5" fill="#ff6666" stroke="rgb(0, 0, 0)" transform="rotate(56,10.4,40.73)" pointer-events="all"/></g><g><ellipse cx="50.4" cy="52.73" rx="5" ry="5" fill="#ff6666" stroke="rgb(0, 0, 0)" transform="rotate(122,50.4,52.73)" pointer-events="all"/></g><g><ellipse cx="37.4" cy="55.73" rx="5" ry="5" fill="#ff6666" stroke="rgb(0, 0, 0)" transform="rotate(122,37.4,55.73)" pointer-events="all"/></g><g><ellipse cx="22.4" cy="59.73" rx="5" ry="5" fill="#ff6666" stroke="rgb(0, 0, 0)" transform="rotate(122,22.4,59.73)" pointer-events="all"/></g><g><ellipse cx="39.4" cy="33.73" rx="5" ry="5" fill="#ff6666" stroke="rgb(0, 0, 0)" transform="rotate(122,39.4,33.73)" pointer-events="all"/></g><g><ellipse cx="25.4" cy="36.73" rx="5" ry="5" fill="#ff6666" stroke="rgb(0, 0, 0)" transform="rotate(122,25.4,36.73)" pointer-events="all"/></g><g><ellipse cx="38.4" cy="45.73" rx="5" ry="5" fill="#ff6666" stroke="rgb(0, 0, 0)" transform="rotate(122,38.4,45.73)" pointer-events="all"/></g><g><ellipse cx="24.4" cy="48.73" rx="5" ry="5" fill="#ff6666" stroke="rgb(0, 0, 0)" transform="rotate(122,24.4,48.73)" pointer-events="all"/></g><g><ellipse cx="47.4" cy="39.73" rx="5" ry="5" fill="#ff6666" stroke="rgb(0, 0, 0)" transform="rotate(122,47.4,39.73)" pointer-events="all"/></g><g><path d="M 154 171 L 34 1" fill="none" stroke="#e6e6e6" stroke-width="3" stroke-miterlimit="10" pointer-events="stroke"/></g></g></svg>