<?xml version="1.0" encoding="UTF-8"?>
<!DOCTYPE svg PUBLIC "-//W3C//DTD SVG 1.1//EN" "http://www.w3.org/Graphics/SVG/1.1/DTD/svg11.dtd">
<svg xmlns="http://www.w3.org/2000/svg" xmlns:xlink="http://www.w3.org/1999/xlink" version="1.1" width="305px" height="246px" viewBox="-0.5 -0.5 305 246"><defs/><g><g/><g><ellipse cx="159" cy="112.31" rx="109.5" ry="63.845" fill-opacity="0.7" fill="#6666ff" stroke="rgb(0, 0, 0)" stroke-opacity="0.7" transform="rotate(-32,159,112.31)" pointer-events="all"/></g><g><ellipse cx="156" cy="112.31" rx="79.5" ry="53.845" fill-opacity="0.7" fill="#9999ff" stroke="rgb(0, 0, 0)" stroke-opacity="0.7" transform="rotate(-32,156,112.31)" pointer-events="all"/></g><g><ellipse cx="159" cy="109.31" rx="60" ry="40" fill-opacity="0.7" fill="#6666ff" stroke="rgb(0, 0, 0)" stroke-opacity="0.7" transform="rotate(-32,159,109.31)" pointer-events="all"/></g><g><ellipse cx="90" cy="129.31" rx="5" ry="5" fill="#6666ff" stroke="#330000" transform="rotate(-30,90,129.31)" pointer-events="all"/></g><g><ellipse cx="104" cy="133.31" rx="5" ry="5" fill="#6666ff" stroke="#330000" transform="rotate(-30,104,133.31)" pointer-events="all"/></g><g><ellipse cx="101" cy="147.31" rx="5" ry="5" fill="#6666ff" stroke="#330000" transform="rotate(-30,101,147.31)" pointer-events="all"/></g><g><ellipse cx="99" cy="124.31" rx="5" ry="5" fill="#6666ff" stroke="#330000" transform="rotate(-30,99,124.31)" pointer-events="all"/></g><g><ellipse cx="96" cy="138.31" rx="5" ry="5" fill="#6666ff" stroke="#330000" transform="rotate(-30,96,138.31)" pointer-events="all"/></g><g><ellipse cx="119" cy="137.31" rx="5" ry="5" fill="#6666ff" stroke="#330000" transform="rotate(-30,119,137.31)" pointer-events="all"/></g><g><ellipse cx="114" cy="150.31" rx="5" ry="5" fill="#6666ff" stroke="#330000" transform="rotate(-30,114,150.31)" pointer-events="all"/></g><g><ellipse cx="95" cy="116.31" rx="5" ry="5" fill="#6666ff" stroke="#330000" transform="rotate(-30,95,116.31)" pointer-events="all"/></g><g><ellipse cx="108" cy="119.31" rx="5" ry="5" fill="#6666ff" stroke="#330000" transform="rotate(-30,108,119.31)" pointer-events="all"/></g><g><ellipse cx="122" cy="123.31" rx="5" ry="5" fill="#6666ff" stroke="#330000" transform="rotate(-30,122,123.31)" pointer-events="all"/></g><g><ellipse cx="136" cy="127.31" rx="5" ry="5" fill="#6666ff" stroke="#330000" transform="rotate(-30,136,127.31)" pointer-events="all"/></g><g><ellipse cx="128" cy="68.31" rx="5" ry="5" fill="#6666ff" stroke="#330000" transform="rotate(12,128,68.31)" pointer-events="all"/></g><g><ellipse cx="137" cy="81.31" rx="5" ry="5" fill="#6666ff" stroke="#330000" transform="rotate(12,137,81.31)" pointer-events="all"/></g><g><ellipse cx="123" cy="88.31" rx="5" ry="5" fill="#6666ff" stroke="#330000" transform="rotate(12,123,88.31)" pointer-events="all"/></g><g><ellipse cx="138" cy="71.31" rx="5" ry="5" fill="#6666ff" stroke="#330000" transform="rotate(12,138,71.31)" pointer-events="all"/></g><g><ellipse cx="126" cy="79.31" rx="5" ry="5" fill="#6666ff" stroke="#330000" transform="rotate(12,126,79.31)" pointer-events="all"/></g><g><ellipse cx="144" cy="93.31" rx="5" ry="5" fill="#6666ff" stroke="#330000" transform="rotate(12,144,93.31)" pointer-events="all"/></g><g><ellipse cx="132" cy="101.31" rx="5" ry="5" fill="#6666ff" stroke="#330000" transform="rotate(12,132,101.31)" pointer-events="all"/></g><g><ellipse cx="140" cy="60.31" rx="5" ry="5" fill="#6666ff" stroke="#330000" transform="rotate(12,140,60.31)" pointer-events="all"/></g><g><ellipse cx="147" cy="73.31" rx="5" ry="5" fill="#6666ff" stroke="#330000" transform="rotate(12,147,73.31)" pointer-events="all"/></g><g><ellipse cx="155" cy="85.31" rx="5" ry="5" fill="#6666ff" stroke="#330000" transform="rotate(12,155,85.31)" pointer-events="all"/></g><g><ellipse cx="162" cy="97.31" rx="5" ry="5" fill="#6666ff" stroke="#330000" transform="rotate(12,162,97.31)" pointer-events="all"/></g><g><ellipse cx="97" cy="103.31" rx="5" ry="5" fill="#6666ff" stroke="#330000" pointer-events="all"/></g><g><ellipse cx="106" cy="114.31" rx="5" ry="5" fill="#6666ff" stroke="#330000" pointer-events="all"/></g><g><ellipse cx="97" cy="124.31" rx="5" ry="5" fill="#6666ff" stroke="#330000" pointer-events="all"/></g><g><ellipse cx="106" cy="104.31" rx="5" ry="5" fill="#6666ff" stroke="#330000" pointer-events="all"/></g><g><ellipse cx="97" cy="114.31" rx="5" ry="5" fill="#6666ff" stroke="#330000" pointer-events="all"/></g><g><ellipse cx="117" cy="124.31" rx="5" ry="5" fill="#6666ff" stroke="#330000" pointer-events="all"/></g><g><ellipse cx="106" cy="134.31" rx="5" ry="5" fill="#6666ff" stroke="#330000" pointer-events="all"/></g><g><ellipse cx="107" cy="95.31" rx="5" ry="5" fill="#6666ff" stroke="#330000" pointer-events="all"/></g><g><ellipse cx="116" cy="104.31" rx="5" ry="5" fill="#6666ff" stroke="#330000" pointer-events="all"/></g><g><ellipse cx="127" cy="114.31" rx="5" ry="5" fill="#6666ff" stroke="#330000" pointer-events="all"/></g><g><ellipse cx="137" cy="125.31" rx="5" ry="5" fill="#6666ff" stroke="#330000" pointer-events="all"/></g><g><ellipse cx="114" cy="144.31" rx="5" ry="5" fill="#6666ff" stroke="#330000" transform="rotate(25,114,144.31)" pointer-events="all"/></g><g><ellipse cx="119" cy="158.31" rx="5" ry="5" fill="#6666ff" stroke="#330000" transform="rotate(25,119,158.31)" pointer-events="all"/></g><g><ellipse cx="107" cy="163.31" rx="5" ry="5" fill="#6666ff" stroke="#330000" transform="rotate(25,107,163.31)" pointer-events="all"/></g><g><ellipse cx="123" cy="148.31" rx="5" ry="5" fill="#6666ff" stroke="#330000" transform="rotate(25,123,148.31)" pointer-events="all"/></g><g><ellipse cx="111" cy="154.31" rx="5" ry="5" fill="#6666ff" stroke="#330000" transform="rotate(25,111,154.31)" pointer-events="all"/></g><g><ellipse cx="124" cy="171.31" rx="5" ry="5" fill="#6666ff" stroke="#330000" transform="rotate(25,124,171.31)" pointer-events="all"/></g><g><ellipse cx="111" cy="176.31" rx="5" ry="5" fill="#6666ff" stroke="#330000" transform="rotate(25,111,176.31)" pointer-events="all"/></g><g><ellipse cx="128" cy="140.31" rx="5" ry="5" fill="#6666ff" stroke="#330000" transform="rotate(25,128,140.31)" pointer-events="all"/></g><g><ellipse cx="132" cy="153.31" rx="5" ry="5" fill="#6666ff" stroke="#330000" transform="rotate(25,132,153.31)" pointer-events="all"/></g><g><ellipse cx="137" cy="166.31" rx="5" ry="5" fill="#6666ff" stroke="#330000" transform="rotate(25,137,166.31)" pointer-events="all"/></g><g><ellipse cx="142" cy="179.31" rx="5" ry="5" fill="#6666ff" stroke="#330000" transform="rotate(25,142,179.31)" pointer-events="all"/></g><g><ellipse cx="139" cy="135.31" rx="5" ry="5" fill="#6666ff" stroke="#330000" transform="rotate(55,139,135.31)" pointer-events="all"/></g><g><ellipse cx="136" cy="149.31" rx="5" ry="5" fill="#6666ff" stroke="#330000" transform="rotate(55,136,149.31)" pointer-events="all"/></g><g><ellipse cx="122" cy="147.31" rx="5" ry="5" fill="#6666ff" stroke="#330000" transform="rotate(55,122,147.31)" pointer-events="all"/></g><g><ellipse cx="144" cy="143.31" rx="5" ry="5" fill="#6666ff" stroke="#330000" transform="rotate(55,144,143.31)" pointer-events="all"/></g><g><ellipse cx="130" cy="141.31" rx="5" ry="5" fill="#6666ff" stroke="#330000" transform="rotate(55,130,141.31)" pointer-events="all"/></g><g><ellipse cx="133" cy="163.31" rx="5" ry="5" fill="#6666ff" stroke="#330000" transform="rotate(55,133,163.31)" pointer-events="all"/></g><g><ellipse cx="119" cy="160.31" rx="5" ry="5" fill="#6666ff" stroke="#330000" transform="rotate(55,119,160.31)" pointer-events="all"/></g><g><ellipse cx="153" cy="138.31" rx="5" ry="5" fill="#6666ff" stroke="#330000" transform="rotate(55,153,138.31)" pointer-events="all"/></g><g><ellipse cx="150" cy="151.31" rx="5" ry="5" fill="#6666ff" stroke="#330000" transform="rotate(55,150,151.31)" pointer-events="all"/></g><g><ellipse cx="148" cy="166.31" rx="5" ry="5" fill="#6666ff" stroke="#330000" transform="rotate(55,148,166.31)" pointer-events="all"/></g><g><ellipse cx="144" cy="180.31" rx="5" ry="5" fill="#6666ff" stroke="#330000" transform="rotate(55,144,180.31)" pointer-events="all"/></g><g><ellipse cx="149" cy="54.31" rx="5" ry="5" fill="#6666ff" stroke="#330000" transform="rotate(42,149,54.31)" pointer-events="all"/></g><g><ellipse cx="150" cy="69.31" rx="5" ry="5" fill="#6666ff" stroke="#330000" transform="rotate(42,150,69.31)" pointer-events="all"/></g><g><ellipse cx="137" cy="70.31" rx="5" ry="5" fill="#6666ff" stroke="#330000" transform="rotate(42,137,70.31)" pointer-events="all"/></g><g><ellipse cx="156" cy="61.31" rx="5" ry="5" fill="#6666ff" stroke="#330000" transform="rotate(42,156,61.31)" pointer-events="all"/></g><g><ellipse cx="143" cy="62.31" rx="5" ry="5" fill="#6666ff" stroke="#330000" transform="rotate(42,143,62.31)" pointer-events="all"/></g><g><ellipse cx="152" cy="83.31" rx="5" ry="5" fill="#6666ff" stroke="#330000" transform="rotate(42,152,83.31)" pointer-events="all"/></g><g><ellipse cx="136" cy="84.31" rx="5" ry="5" fill="#6666ff" stroke="#330000" transform="rotate(42,136,84.31)" pointer-events="all"/></g><g><ellipse cx="163" cy="55.31" rx="5" ry="5" fill="#6666ff" stroke="#330000" transform="rotate(42,163,55.31)" pointer-events="all"/></g><g><ellipse cx="164" cy="68.31" rx="5" ry="5" fill="#6666ff" stroke="#330000" transform="rotate(42,164,68.31)" pointer-events="all"/></g><g><ellipse cx="165" cy="82.31" rx="5" ry="5" fill="#6666ff" stroke="#330000" transform="rotate(42,165,82.31)" pointer-events="all"/></g><g><ellipse cx="167" cy="97.31" rx="5" ry="5" fill="#6666ff" stroke="#330000" transform="rotate(42,167,97.31)" pointer-events="all"/></g><g><ellipse cx="135" cy="95.31" rx="5" ry="5" fill="#6666ff" stroke="#330000" transform="rotate(67,135,95.31)" pointer-events="all"/></g><g><ellipse cx="130" cy="109.31" rx="5" ry="5" fill="#6666ff" stroke="#330000" transform="rotate(67,130,109.31)" pointer-events="all"/></g><g><ellipse cx="117" cy="105.31" rx="5" ry="5" fill="#6666ff" stroke="#330000" transform="rotate(67,117,105.31)" pointer-events="all"/></g><g><ellipse cx="139" cy="105.31" rx="5" ry="5" fill="#6666ff" stroke="#330000" transform="rotate(67,139,105.31)" pointer-events="all"/></g><g><ellipse cx="127" cy="101.31" rx="5" ry="5" fill="#6666ff" stroke="#330000" transform="rotate(67,127,101.31)" pointer-events="all"/></g><g><ellipse cx="124" cy="123.31" rx="5" ry="5" fill="#6666ff" stroke="#330000" transform="rotate(67,124,123.31)" pointer-events="all"/></g><g><ellipse cx="111" cy="118.31" rx="5" ry="5" fill="#6666ff" stroke="#330000" transform="rotate(67,111,118.31)" pointer-events="all"/></g><g><ellipse cx="147" cy="102.31" rx="5" ry="5" fill="#6666ff" stroke="#330000" transform="rotate(67,147,102.31)" pointer-events="all"/></g><g><ellipse cx="143" cy="114.31" rx="5" ry="5" fill="#6666ff" stroke="#330000" transform="rotate(67,143,114.31)" pointer-events="all"/></g><g><ellipse cx="137" cy="128.31" rx="5" ry="5" fill="#6666ff" stroke="#330000" transform="rotate(67,137,128.31)" pointer-events="all"/></g><g><ellipse cx="134" cy="141.31" rx="5" ry="5" fill="#6666ff" stroke="#330000" transform="rotate(67,134,141.31)" pointer-events="all"/></g><g><ellipse cx="160" cy="105.31" rx="5" ry="5" fill="#6666ff" stroke="#330000" transform="rotate(97,160,105.31)" pointer-events="all"/></g><g><ellipse cx="148" cy="114.31" rx="5" ry="5" fill="#6666ff" stroke="#330000" transform="rotate(97,148,114.31)" pointer-events="all"/></g><g><ellipse cx="137" cy="102.31" rx="5" ry="5" fill="#6666ff" stroke="#330000" transform="rotate(97,137,102.31)" pointer-events="all"/></g><g><ellipse cx="157" cy="115.31" rx="5" ry="5" fill="#6666ff" stroke="#330000" transform="rotate(97,157,115.31)" pointer-events="all"/></g><g><ellipse cx="149" cy="104.31" rx="5" ry="5" fill="#6666ff" stroke="#330000" transform="rotate(97,149,104.31)" pointer-events="all"/></g><g><ellipse cx="136" cy="122.31" rx="5" ry="5" fill="#6666ff" stroke="#330000" transform="rotate(97,136,122.31)" pointer-events="all"/></g><g><ellipse cx="128" cy="110.31" rx="5" ry="5" fill="#6666ff" stroke="#330000" transform="rotate(97,128,110.31)" pointer-events="all"/></g><g><ellipse cx="168" cy="115.31" rx="5" ry="5" fill="#6666ff" stroke="#330000" transform="rotate(97,168,115.31)" pointer-events="all"/></g><g><ellipse cx="156" cy="125.31" rx="5" ry="5" fill="#6666ff" stroke="#330000" transform="rotate(97,156,125.31)" pointer-events="all"/></g><g><ellipse cx="146" cy="134.31" rx="5" ry="5" fill="#6666ff" stroke="#330000" transform="rotate(97,146,134.31)" pointer-events="all"/></g><g><ellipse cx="133" cy="142.31" rx="5" ry="5" fill="#6666ff" stroke="#330000" transform="rotate(97,133,142.31)" pointer-events="all"/></g><g><ellipse cx="166" cy="94.31" rx="5" ry="5" fill="#6666ff" stroke="#330000" transform="rotate(10,166,94.31)" pointer-events="all"/></g><g><ellipse cx="186" cy="98.31" rx="5" ry="5" fill="#6666ff" stroke="#330000" transform="rotate(10,186,98.31)" pointer-events="all"/></g><g><ellipse cx="174" cy="106.31" rx="5" ry="5" fill="#6666ff" stroke="#330000" transform="rotate(10,174,106.31)" pointer-events="all"/></g><g><ellipse cx="206" cy="101.31" rx="5" ry="5" fill="#6666ff" stroke="#330000" transform="rotate(10,206,101.31)" pointer-events="all"/></g><g><ellipse cx="178" cy="102.31" rx="5" ry="5" fill="#6666ff" stroke="#330000" transform="rotate(65,178,102.31)" pointer-events="all"/></g><g><ellipse cx="174" cy="115.31" rx="5" ry="5" fill="#6666ff" stroke="#330000" transform="rotate(65,174,115.31)" pointer-events="all"/></g><g><ellipse cx="160" cy="111.31" rx="5" ry="5" fill="#6666ff" stroke="#330000" transform="rotate(65,160,111.31)" pointer-events="all"/></g><g><ellipse cx="182" cy="110.31" rx="5" ry="5" fill="#6666ff" stroke="#330000" transform="rotate(65,182,110.31)" pointer-events="all"/></g><g><ellipse cx="169" cy="107.31" rx="5" ry="5" fill="#6666ff" stroke="#330000" transform="rotate(65,169,107.31)" pointer-events="all"/></g><g><ellipse cx="169" cy="129.31" rx="5" ry="5" fill="#6666ff" stroke="#330000" transform="rotate(65,169,129.31)" pointer-events="all"/></g><g><ellipse cx="155" cy="124.31" rx="5" ry="5" fill="#6666ff" stroke="#330000" transform="rotate(65,155,124.31)" pointer-events="all"/></g><g><ellipse cx="192" cy="107.31" rx="5" ry="5" fill="#6666ff" stroke="#330000" transform="rotate(65,192,107.31)" pointer-events="all"/></g><g><ellipse cx="186" cy="119.31" rx="5" ry="5" fill="#6666ff" stroke="#330000" transform="rotate(65,186,119.31)" pointer-events="all"/></g><g><ellipse cx="182" cy="133.31" rx="5" ry="5" fill="#6666ff" stroke="#330000" transform="rotate(65,182,133.31)" pointer-events="all"/></g><g><ellipse cx="177" cy="147.31" rx="5" ry="5" fill="#6666ff" stroke="#330000" transform="rotate(65,177,147.31)" pointer-events="all"/></g><g><ellipse cx="206" cy="103.31" rx="5" ry="5" fill="#6666ff" stroke="#330000" transform="rotate(107,206,103.31)" pointer-events="all"/></g><g><ellipse cx="194" cy="111.31" rx="5" ry="5" fill="#6666ff" stroke="#330000" transform="rotate(107,194,111.31)" pointer-events="all"/></g><g><ellipse cx="237" cy="113.31" rx="5" ry="5" fill="#6666ff" stroke="#330000" transform="rotate(137,237,113.31)" pointer-events="all"/></g><g><ellipse cx="223" cy="114.31" rx="5" ry="5" fill="#6666ff" stroke="#330000" transform="rotate(137,223,114.31)" pointer-events="all"/></g><g><ellipse cx="209" cy="114.31" rx="5" ry="5" fill="#6666ff" stroke="#330000" transform="rotate(137,209,114.31)" pointer-events="all"/></g><g><ellipse cx="194" cy="112.31" rx="5" ry="5" fill="#6666ff" stroke="#330000" transform="rotate(137,194,112.31)" pointer-events="all"/></g><g><ellipse cx="202" cy="111.31" rx="5" ry="5" fill="#6666ff" stroke="#330000" transform="rotate(95,202,111.31)" pointer-events="all"/></g><g><ellipse cx="191" cy="119.31" rx="5" ry="5" fill="#6666ff" stroke="#330000" transform="rotate(95,191,119.31)" pointer-events="all"/></g><g><ellipse cx="182" cy="109.31" rx="5" ry="5" fill="#6666ff" stroke="#330000" transform="rotate(95,182,109.31)" pointer-events="all"/></g><g><ellipse cx="201" cy="120.31" rx="5" ry="5" fill="#6666ff" stroke="#330000" transform="rotate(95,201,120.31)" pointer-events="all"/></g><g><ellipse cx="191" cy="109.31" rx="5" ry="5" fill="#6666ff" stroke="#330000" transform="rotate(95,191,109.31)" pointer-events="all"/></g><g><ellipse cx="180" cy="128.31" rx="5" ry="5" fill="#6666ff" stroke="#330000" transform="rotate(95,180,128.31)" pointer-events="all"/></g><g><ellipse cx="171" cy="117.31" rx="5" ry="5" fill="#6666ff" stroke="#330000" transform="rotate(95,171,117.31)" pointer-events="all"/></g><g><ellipse cx="211" cy="121.31" rx="5" ry="5" fill="#6666ff" stroke="#330000" transform="rotate(95,211,121.31)" pointer-events="all"/></g><g><ellipse cx="200" cy="130.31" rx="5" ry="5" fill="#6666ff" stroke="#330000" transform="rotate(95,200,130.31)" pointer-events="all"/></g><g><ellipse cx="189" cy="139.31" rx="5" ry="5" fill="#6666ff" stroke="#330000" transform="rotate(95,189,139.31)" pointer-events="all"/></g><g><ellipse cx="178" cy="148.31" rx="5" ry="5" fill="#6666ff" stroke="#330000" transform="rotate(95,178,148.31)" pointer-events="all"/></g><g><ellipse cx="175" cy="70.31" rx="5" ry="5" fill="#6666ff" stroke="#330000" transform="rotate(50,175,70.31)" pointer-events="all"/></g><g><ellipse cx="175" cy="83.31" rx="5" ry="5" fill="#6666ff" stroke="#330000" transform="rotate(50,175,83.31)" pointer-events="all"/></g><g><ellipse cx="181" cy="78.31" rx="5" ry="5" fill="#6666ff" stroke="#330000" transform="rotate(50,181,78.31)" pointer-events="all"/></g><g><ellipse cx="168" cy="76.31" rx="5" ry="5" fill="#6666ff" stroke="#330000" transform="rotate(50,168,76.31)" pointer-events="all"/></g><g><ellipse cx="190" cy="70.31" rx="5" ry="5" fill="#6666ff" stroke="#330000" transform="rotate(50,190,70.31)" pointer-events="all"/></g><g><ellipse cx="187" cy="86.31" rx="5" ry="5" fill="#6666ff" stroke="#330000" transform="rotate(50,187,86.31)" pointer-events="all"/></g><g><ellipse cx="201" cy="71.31" rx="5" ry="5" fill="#6666ff" stroke="#330000" transform="rotate(80,201,71.31)" pointer-events="all"/></g><g><ellipse cx="192" cy="85.31" rx="5" ry="5" fill="#6666ff" stroke="#330000" transform="rotate(80,192,85.31)" pointer-events="all"/></g><g><ellipse cx="182" cy="76.31" rx="5" ry="5" fill="#6666ff" stroke="#330000" transform="rotate(80,182,76.31)" pointer-events="all"/></g><g><ellipse cx="202" cy="82.31" rx="5" ry="5" fill="#6666ff" stroke="#330000" transform="rotate(80,202,82.31)" pointer-events="all"/></g><g><ellipse cx="190" cy="74.31" rx="5" ry="5" fill="#6666ff" stroke="#330000" transform="rotate(80,190,74.31)" pointer-events="all"/></g><g><ellipse cx="172" cy="88.31" rx="5" ry="5" fill="#6666ff" stroke="#330000" transform="rotate(80,172,88.31)" pointer-events="all"/></g><g><ellipse cx="212" cy="81.31" rx="5" ry="5" fill="#6666ff" stroke="#330000" transform="rotate(80,212,81.31)" pointer-events="all"/></g><g><ellipse cx="204" cy="90.31" rx="5" ry="5" fill="#6666ff" stroke="#330000" transform="rotate(80,204,90.31)" pointer-events="all"/></g><g/><g><ellipse cx="88" cy="142.89" rx="87.42" ry="50.70000000000001" fill-opacity="0.7" fill="#ffcccc" stroke="rgb(0, 0, 0)" stroke-opacity="0.7" transform="rotate(60,88,142.89)" pointer-events="all"/></g><g><ellipse cx="88" cy="139.39" rx="63.455000000000005" ry="42.395" fill-opacity="0.8" fill="#ff9999" stroke="rgb(0, 0, 0)" stroke-opacity="0.8" transform="rotate(62,88,139.39)" pointer-events="all"/></g><g><ellipse cx="83" cy="137" rx="49.5" ry="31.5" fill-opacity="0.8" fill="#ff6666" stroke="rgb(0, 0, 0)" stroke-opacity="0.8" transform="rotate(62,83,137)" pointer-events="all"/></g><g><ellipse cx="93" cy="102" rx="5" ry="5" fill="#ff6666" stroke="rgb(0, 0, 0)" pointer-events="all"/></g><g><ellipse cx="103" cy="112" rx="5" ry="5" fill="#ff6666" stroke="rgb(0, 0, 0)" pointer-events="all"/></g><g><ellipse cx="113" cy="122" rx="5" ry="5" fill="#ff6666" stroke="rgb(0, 0, 0)" pointer-events="all"/></g><g><ellipse cx="123" cy="132" rx="5" ry="5" fill="#ff6666" stroke="rgb(0, 0, 0)" pointer-events="all"/></g><g><ellipse cx="133" cy="142" rx="5" ry="5" fill="#ff6666" stroke="rgb(0, 0, 0)" pointer-events="all"/></g><g><ellipse cx="83" cy="122" rx="5" ry="5" fill="#ff6666" stroke="rgb(0, 0, 0)" pointer-events="all"/></g><g><ellipse cx="93" cy="132" rx="5" ry="5" fill="#ff6666" stroke="rgb(0, 0, 0)" pointer-events="all"/></g><g><ellipse cx="93" cy="116.33" rx="5" ry="5" fill="#ff6666" stroke="rgb(0, 0, 0)" pointer-events="all"/></g><g><ellipse cx="103" cy="126.33" rx="5" ry="5" fill="#ff6666" stroke="rgb(0, 0, 0)" pointer-events="all"/></g><g><ellipse cx="83" cy="112" rx="5" ry="5" fill="#ff6666" stroke="rgb(0, 0, 0)" pointer-events="all"/></g><g/><g><ellipse cx="125" cy="90" rx="5" ry="5" fill="#ff6666" stroke="rgb(0, 0, 0)" transform="rotate(66,125,90)" pointer-events="all"/></g><g><ellipse cx="120" cy="103" rx="5" ry="5" fill="#ff6666" stroke="rgb(0, 0, 0)" transform="rotate(66,120,103)" pointer-events="all"/></g><g><ellipse cx="115" cy="117" rx="5" ry="5" fill="#ff6666" stroke="rgb(0, 0, 0)" transform="rotate(66,115,117)" pointer-events="all"/></g><g><ellipse cx="110" cy="130" rx="5" ry="5" fill="#ff6666" stroke="rgb(0, 0, 0)" transform="rotate(66,110,130)" pointer-events="all"/></g><g><ellipse cx="105" cy="143" rx="5" ry="5" fill="#ff6666" stroke="rgb(0, 0, 0)" transform="rotate(66,105,143)" pointer-events="all"/></g><g><ellipse cx="103" cy="89" rx="5" ry="5" fill="#ff6666" stroke="rgb(0, 0, 0)" transform="rotate(66,103,89)" pointer-events="all"/></g><g><ellipse cx="98" cy="102" rx="5" ry="5" fill="#ff6666" stroke="rgb(0, 0, 0)" transform="rotate(66,98,102)" pointer-events="all"/></g><g><ellipse cx="112" cy="96" rx="5" ry="5" fill="#ff6666" stroke="rgb(0, 0, 0)" transform="rotate(66,112,96)" pointer-events="all"/></g><g><ellipse cx="107" cy="109" rx="5" ry="5" fill="#ff6666" stroke="rgb(0, 0, 0)" transform="rotate(66,107,109)" pointer-events="all"/></g><g><ellipse cx="112" cy="85" rx="5" ry="5" fill="#ff6666" stroke="rgb(0, 0, 0)" transform="rotate(66,112,85)" pointer-events="all"/></g><g><ellipse cx="68" cy="117" rx="5" ry="5" fill="#ff6666" stroke="rgb(0, 0, 0)" pointer-events="all"/></g><g><ellipse cx="78" cy="127" rx="5" ry="5" fill="#ff6666" stroke="rgb(0, 0, 0)" pointer-events="all"/></g><g><ellipse cx="88" cy="137" rx="5" ry="5" fill="#ff6666" stroke="rgb(0, 0, 0)" pointer-events="all"/></g><g><ellipse cx="98" cy="147" rx="5" ry="5" fill="#ff6666" stroke="rgb(0, 0, 0)" pointer-events="all"/></g><g><ellipse cx="108" cy="157" rx="5" ry="5" fill="#ff6666" stroke="rgb(0, 0, 0)" pointer-events="all"/></g><g><ellipse cx="58" cy="137" rx="5" ry="5" fill="#ff6666" stroke="rgb(0, 0, 0)" pointer-events="all"/></g><g><ellipse cx="68" cy="147" rx="5" ry="5" fill="#ff6666" stroke="rgb(0, 0, 0)" pointer-events="all"/></g><g><ellipse cx="68" cy="131.33" rx="5" ry="5" fill="#ff6666" stroke="rgb(0, 0, 0)" pointer-events="all"/></g><g><ellipse cx="78" cy="141.33" rx="5" ry="5" fill="#ff6666" stroke="rgb(0, 0, 0)" pointer-events="all"/></g><g><ellipse cx="58" cy="127" rx="5" ry="5" fill="#ff6666" stroke="rgb(0, 0, 0)" pointer-events="all"/></g><g/><g><ellipse cx="100" cy="105" rx="5" ry="5" fill="#ff6666" stroke="rgb(0, 0, 0)" transform="rotate(66,100,105)" pointer-events="all"/></g><g><ellipse cx="95" cy="118" rx="5" ry="5" fill="#ff6666" stroke="rgb(0, 0, 0)" transform="rotate(66,95,118)" pointer-events="all"/></g><g><ellipse cx="90" cy="132" rx="5" ry="5" fill="#ff6666" stroke="rgb(0, 0, 0)" transform="rotate(66,90,132)" pointer-events="all"/></g><g><ellipse cx="85" cy="145" rx="5" ry="5" fill="#ff6666" stroke="rgb(0, 0, 0)" transform="rotate(66,85,145)" pointer-events="all"/></g><g><ellipse cx="80" cy="158" rx="5" ry="5" fill="#ff6666" stroke="rgb(0, 0, 0)" transform="rotate(66,80,158)" pointer-events="all"/></g><g><ellipse cx="78" cy="104" rx="5" ry="5" fill="#ff6666" stroke="rgb(0, 0, 0)" transform="rotate(66,78,104)" pointer-events="all"/></g><g><ellipse cx="73" cy="117" rx="5" ry="5" fill="#ff6666" stroke="rgb(0, 0, 0)" transform="rotate(66,73,117)" pointer-events="all"/></g><g><ellipse cx="87" cy="111" rx="5" ry="5" fill="#ff6666" stroke="rgb(0, 0, 0)" transform="rotate(66,87,111)" pointer-events="all"/></g><g><ellipse cx="82" cy="124" rx="5" ry="5" fill="#ff6666" stroke="rgb(0, 0, 0)" transform="rotate(66,82,124)" pointer-events="all"/></g><g><ellipse cx="87" cy="100" rx="5" ry="5" fill="#ff6666" stroke="rgb(0, 0, 0)" transform="rotate(66,87,100)" pointer-events="all"/></g><g/><g><ellipse cx="116.46" cy="150" rx="5" ry="5" fill="#ff6666" stroke="rgb(0, 0, 0)" transform="rotate(50,116.46,150)" pointer-events="all"/></g><g><ellipse cx="115.46" cy="164" rx="5" ry="5" fill="#ff6666" stroke="rgb(0, 0, 0)" transform="rotate(50,115.46,164)" pointer-events="all"/></g><g><ellipse cx="114.46" cy="178" rx="5" ry="5" fill="#ff6666" stroke="rgb(0, 0, 0)" transform="rotate(50,114.46,178)" pointer-events="all"/></g><g><ellipse cx="112.46" cy="192" rx="5" ry="5" fill="#ff6666" stroke="rgb(0, 0, 0)" transform="rotate(50,112.46,192)" pointer-events="all"/></g><g><ellipse cx="111.46" cy="206" rx="5" ry="5" fill="#ff6666" stroke="rgb(0, 0, 0)" transform="rotate(50,111.46,206)" pointer-events="all"/></g><g><ellipse cx="94.46" cy="155" rx="5" ry="5" fill="#ff6666" stroke="rgb(0, 0, 0)" transform="rotate(50,94.46,155)" pointer-events="all"/></g><g><ellipse cx="93.46" cy="169" rx="5" ry="5" fill="#ff6666" stroke="rgb(0, 0, 0)" transform="rotate(50,93.46,169)" pointer-events="all"/></g><g><ellipse cx="105.46" cy="159" rx="5" ry="5" fill="#ff6666" stroke="rgb(0, 0, 0)" transform="rotate(50,105.46,159)" pointer-events="all"/></g><g><ellipse cx="104.46" cy="173" rx="5" ry="5" fill="#ff6666" stroke="rgb(0, 0, 0)" transform="rotate(50,104.46,173)" pointer-events="all"/></g><g><ellipse cx="102.46" cy="149" rx="5" ry="5" fill="#ff6666" stroke="rgb(0, 0, 0)" transform="rotate(50,102.46,149)" pointer-events="all"/></g><g/><g><ellipse cx="146.46" cy="167" rx="5" ry="5" fill="#ff6666" stroke="rgb(0, 0, 0)" transform="rotate(116,146.46,167)" pointer-events="all"/></g><g><ellipse cx="132.46" cy="172" rx="5" ry="5" fill="#ff6666" stroke="rgb(0, 0, 0)" transform="rotate(116,132.46,172)" pointer-events="all"/></g><g><ellipse cx="118.46" cy="177" rx="5" ry="5" fill="#ff6666" stroke="rgb(0, 0, 0)" transform="rotate(116,118.46,177)" pointer-events="all"/></g><g><ellipse cx="105.46" cy="181" rx="5" ry="5" fill="#ff6666" stroke="rgb(0, 0, 0)" transform="rotate(116,105.46,181)" pointer-events="all"/></g><g><ellipse cx="92.46" cy="186" rx="5" ry="5" fill="#ff6666" stroke="rgb(0, 0, 0)" transform="rotate(116,92.46,186)" pointer-events="all"/></g><g><ellipse cx="132.46" cy="150" rx="5" ry="5" fill="#ff6666" stroke="rgb(0, 0, 0)" transform="rotate(116,132.46,150)" pointer-events="all"/></g><g><ellipse cx="119.46" cy="154" rx="5" ry="5" fill="#ff6666" stroke="rgb(0, 0, 0)" transform="rotate(116,119.46,154)" pointer-events="all"/></g><g><ellipse cx="133.46" cy="161" rx="5" ry="5" fill="#ff6666" stroke="rgb(0, 0, 0)" transform="rotate(116,133.46,161)" pointer-events="all"/></g><g><ellipse cx="119.46" cy="165" rx="5" ry="5" fill="#ff6666" stroke="rgb(0, 0, 0)" transform="rotate(116,119.46,165)" pointer-events="all"/></g><g><ellipse cx="141.46" cy="154" rx="5" ry="5" fill="#ff6666" stroke="rgb(0, 0, 0)" transform="rotate(116,141.46,154)" pointer-events="all"/></g><g><ellipse cx="89.46" cy="141" rx="5" ry="5" fill="#ff6666" stroke="rgb(0, 0, 0)" transform="rotate(50,89.46,141)" pointer-events="all"/></g><g><ellipse cx="87.46" cy="155" rx="5" ry="5" fill="#ff6666" stroke="rgb(0, 0, 0)" transform="rotate(50,87.46,155)" pointer-events="all"/></g><g><ellipse cx="86.46" cy="169" rx="5" ry="5" fill="#ff6666" stroke="rgb(0, 0, 0)" transform="rotate(50,86.46,169)" pointer-events="all"/></g><g><ellipse cx="85.46" cy="183" rx="5" ry="5" fill="#ff6666" stroke="rgb(0, 0, 0)" transform="rotate(50,85.46,183)" pointer-events="all"/></g><g><ellipse cx="84.46" cy="197" rx="5" ry="5" fill="#ff6666" stroke="rgb(0, 0, 0)" transform="rotate(50,84.46,197)" pointer-events="all"/></g><g><ellipse cx="67.46" cy="146" rx="5" ry="5" fill="#ff6666" stroke="rgb(0, 0, 0)" transform="rotate(50,67.46,146)" pointer-events="all"/></g><g><ellipse cx="66.46" cy="160" rx="5" ry="5" fill="#ff6666" stroke="rgb(0, 0, 0)" transform="rotate(50,66.46,160)" pointer-events="all"/></g><g><ellipse cx="78.46" cy="150" rx="5" ry="5" fill="#ff6666" stroke="rgb(0, 0, 0)" transform="rotate(50,78.46,150)" pointer-events="all"/></g><g><ellipse cx="76.46" cy="164" rx="5" ry="5" fill="#ff6666" stroke="rgb(0, 0, 0)" transform="rotate(50,76.46,164)" pointer-events="all"/></g><g><ellipse cx="74.46" cy="139" rx="5" ry="5" fill="#ff6666" stroke="rgb(0, 0, 0)" transform="rotate(50,74.46,139)" pointer-events="all"/></g><g/><g><ellipse cx="119.46" cy="157" rx="5" ry="5" fill="#ff6666" stroke="rgb(0, 0, 0)" transform="rotate(116,119.46,157)" pointer-events="all"/></g><g><ellipse cx="105.46" cy="162" rx="5" ry="5" fill="#ff6666" stroke="rgb(0, 0, 0)" transform="rotate(116,105.46,162)" pointer-events="all"/></g><g><ellipse cx="91.46" cy="167" rx="5" ry="5" fill="#ff6666" stroke="rgb(0, 0, 0)" transform="rotate(116,91.46,167)" pointer-events="all"/></g><g><ellipse cx="78.46" cy="171" rx="5" ry="5" fill="#ff6666" stroke="rgb(0, 0, 0)" transform="rotate(116,78.46,171)" pointer-events="all"/></g><g><ellipse cx="65.46" cy="176" rx="5" ry="5" fill="#ff6666" stroke="rgb(0, 0, 0)" transform="rotate(116,65.46,176)" pointer-events="all"/></g><g><ellipse cx="105.46" cy="140" rx="5" ry="5" fill="#ff6666" stroke="rgb(0, 0, 0)" transform="rotate(116,105.46,140)" pointer-events="all"/></g><g><ellipse cx="92.46" cy="144" rx="5" ry="5" fill="#ff6666" stroke="rgb(0, 0, 0)" transform="rotate(116,92.46,144)" pointer-events="all"/></g><g><ellipse cx="106.46" cy="151" rx="5" ry="5" fill="#ff6666" stroke="rgb(0, 0, 0)" transform="rotate(116,106.46,151)" pointer-events="all"/></g><g><ellipse cx="92.46" cy="155" rx="5" ry="5" fill="#ff6666" stroke="rgb(0, 0, 0)" transform="rotate(116,92.46,155)" pointer-events="all"/></g><g><ellipse cx="114.46" cy="144" rx="5" ry="5" fill="#ff6666" stroke="rgb(0, 0, 0)" transform="rotate(116,114.46,144)" pointer-events="all"/></g><g/><g><ellipse cx="73.4" cy="91.73" rx="5" ry="5" fill="#ff6666" stroke="rgb(0, 0, 0)" transform="rotate(56,73.4,91.73)" pointer-events="all"/></g><g><ellipse cx="70.4" cy="105.73" rx="5" ry="5" fill="#ff6666" stroke="rgb(0, 0, 0)" transform="rotate(56,70.4,105.73)" pointer-events="all"/></g><g><ellipse cx="67.4" cy="118.73" rx="5" ry="5" fill="#ff6666" stroke="rgb(0, 0, 0)" transform="rotate(56,67.4,118.73)" pointer-events="all"/></g><g><ellipse cx="65.4" cy="132.73" rx="5" ry="5" fill="#ff6666" stroke="rgb(0, 0, 0)" transform="rotate(56,65.4,132.73)" pointer-events="all"/></g><g><ellipse cx="51.4" cy="94.73" rx="5" ry="5" fill="#ff6666" stroke="rgb(0, 0, 0)" transform="rotate(56,51.4,94.73)" pointer-events="all"/></g><g><ellipse cx="48.4" cy="107.73" rx="5" ry="5" fill="#ff6666" stroke="rgb(0, 0, 0)" transform="rotate(56,48.4,107.73)" pointer-events="all"/></g><g><ellipse cx="61.4" cy="99.73" rx="5" ry="5" fill="#ff6666" stroke="rgb(0, 0, 0)" transform="rotate(56,61.4,99.73)" pointer-events="all"/></g><g><ellipse cx="58.4" cy="113.73" rx="5" ry="5" fill="#ff6666" stroke="rgb(0, 0, 0)" transform="rotate(56,58.4,113.73)" pointer-events="all"/></g><g><ellipse cx="59.4" cy="88.73" rx="5" ry="5" fill="#ff6666" stroke="rgb(0, 0, 0)" transform="rotate(56,59.4,88.73)" pointer-events="all"/></g><g><ellipse cx="101.4" cy="110.73" rx="5" ry="5" fill="#ff6666" stroke="rgb(0, 0, 0)" transform="rotate(122,101.4,110.73)" pointer-events="all"/></g><g><ellipse cx="87.4" cy="114.73" rx="5" ry="5" fill="#ff6666" stroke="rgb(0, 0, 0)" transform="rotate(122,87.4,114.73)" pointer-events="all"/></g><g><ellipse cx="73.4" cy="117.73" rx="5" ry="5" fill="#ff6666" stroke="rgb(0, 0, 0)" transform="rotate(122,73.4,117.73)" pointer-events="all"/></g><g><ellipse cx="59.4" cy="120.73" rx="5" ry="5" fill="#ff6666" stroke="rgb(0, 0, 0)" transform="rotate(122,59.4,120.73)" pointer-events="all"/></g><g><ellipse cx="89.4" cy="92.73" rx="5" ry="5" fill="#ff6666" stroke="rgb(0, 0, 0)" transform="rotate(122,89.4,92.73)" pointer-events="all"/></g><g><ellipse cx="75.4" cy="95.73" rx="5" ry="5" fill="#ff6666" stroke="rgb(0, 0, 0)" transform="rotate(122,75.4,95.73)" pointer-events="all"/></g><g><ellipse cx="88.4" cy="103.73" rx="5" ry="5" fill="#ff6666" stroke="rgb(0, 0, 0)" transform="rotate(122,88.4,103.73)" pointer-events="all"/></g><g><ellipse cx="75.4" cy="106.73" rx="5" ry="5" fill="#ff6666" stroke="rgb(0, 0, 0)" transform="rotate(122,75.4,106.73)" pointer-events="all"/></g><g><ellipse cx="97.4" cy="97.73" rx="5" ry="5" fill="#ff6666" stroke="rgb(0, 0, 0)" transform="rotate(122,97.4,97.73)" pointer-events="all"/></g><g><ellipse cx="46.4" cy="78.73" rx="5" ry="5" fill="#ff6666" stroke="rgb(0, 0, 0)" transform="rotate(56,46.4,78.73)" pointer-events="all"/></g><g><ellipse cx="44.4" cy="92.73" rx="5" ry="5" fill="#ff6666" stroke="rgb(0, 0, 0)" transform="rotate(56,44.4,92.73)" pointer-events="all"/></g><g><ellipse cx="41.4" cy="106.73" rx="5" ry="5" fill="#ff6666" stroke="rgb(0, 0, 0)" transform="rotate(56,41.4,106.73)" pointer-events="all"/></g><g><ellipse cx="34.4" cy="86.73" rx="5" ry="5" fill="#ff6666" stroke="rgb(0, 0, 0)" transform="rotate(56,34.4,86.73)" pointer-events="all"/></g><g><ellipse cx="74.4" cy="98.73" rx="5" ry="5" fill="#ff6666" stroke="rgb(0, 0, 0)" transform="rotate(122,74.4,98.73)" pointer-events="all"/></g><g><ellipse cx="61.4" cy="101.73" rx="5" ry="5" fill="#ff6666" stroke="rgb(0, 0, 0)" transform="rotate(122,61.4,101.73)" pointer-events="all"/></g><g><ellipse cx="46.4" cy="105.73" rx="5" ry="5" fill="#ff6666" stroke="rgb(0, 0, 0)" transform="rotate(122,46.4,105.73)" pointer-events="all"/></g><g><ellipse cx="63.4" cy="79.73" rx="5" ry="5" fill="#ff6666" stroke="rgb(0, 0, 0)" transform="rotate(122,63.4,79.73)" pointer-events="all"/></g><g><ellipse cx="49.4" cy="82.73" rx="5" ry="5" fill="#ff6666" stroke="rgb(0, 0, 0)" transform="rotate(122,49.4,82.73)" pointer-events="all"/></g><g><ellipse cx="62.4" cy="91.73" rx="5" ry="5" fill="#ff6666" stroke="rgb(0, 0, 0)" transform="rotate(122,62.4,91.73)" pointer-events="all"/></g><g><ellipse cx="48.4" cy="94.73" rx="5" ry="5" fill="#ff6666" stroke="rgb(0, 0, 0)" transform="rotate(122,48.4,94.73)" pointer-events="all"/></g><g><ellipse cx="71.4" cy="85.73" rx="5" ry="5" fill="#ff6666" stroke="rgb(0, 0, 0)" transform="rotate(122,71.4,85.73)" pointer-events="all"/></g></g></svg>