<?xml version="1.0" encoding="UTF-8"?>
<!DOCTYPE svg PUBLIC "-//W3C//DTD SVG 1.1//EN" "http://www.w3.org/Graphics/SVG/1.1/DTD/svg11.dtd">
<svg xmlns="http://www.w3.org/2000/svg" xmlns:xlink="http://www.w3.org/1999/xlink" version="1.1" width="291px" height="236px" viewBox="-0.5 -0.5 291 236"><defs/><g><g/><g/><g><ellipse cx="127" cy="112.31" rx="109.5" ry="63.845000000000006" fill-opacity="0.7" fill="#6666ff" stroke="rgb(0, 0, 0)" stroke-opacity="0.7" transform="rotate(-32,127,112.31)" pointer-events="all"/></g><g><ellipse cx="124" cy="112.31" rx="79.5" ry="53.845000000000006" fill-opacity="0.7" fill="#9999ff" stroke="rgb(0, 0, 0)" stroke-opacity="0.7" transform="rotate(-32,124,112.31)" pointer-events="all"/></g><g><ellipse cx="127" cy="109.31" rx="60" ry="40" fill-opacity="0.7" fill="#6666ff" stroke="rgb(0, 0, 0)" stroke-opacity="0.7" transform="rotate(-32,127,109.31)" pointer-events="all"/></g><g><ellipse cx="58" cy="129.31" rx="5" ry="5" fill="#6666ff" stroke="#330000" transform="rotate(-30,58,129.31)" pointer-events="all"/></g><g><ellipse cx="72" cy="133.31" rx="5" ry="5" fill="#6666ff" stroke="#330000" transform="rotate(-30,72,133.31)" pointer-events="all"/></g><g><ellipse cx="69" cy="147.31" rx="5" ry="5" fill="#6666ff" stroke="#330000" transform="rotate(-30,69,147.31)" pointer-events="all"/></g><g><ellipse cx="67" cy="124.31" rx="5" ry="5" fill="#6666ff" stroke="#330000" transform="rotate(-30,67,124.31)" pointer-events="all"/></g><g><ellipse cx="64" cy="138.31" rx="5" ry="5" fill="#6666ff" stroke="#330000" transform="rotate(-30,64,138.31)" pointer-events="all"/></g><g><ellipse cx="87" cy="137.31" rx="5" ry="5" fill="#6666ff" stroke="#330000" transform="rotate(-30,87,137.31)" pointer-events="all"/></g><g><ellipse cx="82" cy="150.31" rx="5" ry="5" fill="#6666ff" stroke="#330000" transform="rotate(-30,82,150.31)" pointer-events="all"/></g><g><ellipse cx="63" cy="116.31" rx="5" ry="5" fill="#6666ff" stroke="#330000" transform="rotate(-30,63,116.31)" pointer-events="all"/></g><g><ellipse cx="76" cy="119.31" rx="5" ry="5" fill="#6666ff" stroke="#330000" transform="rotate(-30,76,119.31)" pointer-events="all"/></g><g><ellipse cx="90" cy="123.31" rx="5" ry="5" fill="#6666ff" stroke="#330000" transform="rotate(-30,90,123.31)" pointer-events="all"/></g><g><ellipse cx="104" cy="127.31" rx="5" ry="5" fill="#6666ff" stroke="#330000" transform="rotate(-30,104,127.31)" pointer-events="all"/></g><g><ellipse cx="96" cy="68.31" rx="5" ry="5" fill="#6666ff" stroke="#330000" transform="rotate(12,96,68.31)" pointer-events="all"/></g><g><ellipse cx="105" cy="81.31" rx="5" ry="5" fill="#6666ff" stroke="#330000" transform="rotate(12,105,81.31)" pointer-events="all"/></g><g><ellipse cx="91" cy="88.31" rx="5" ry="5" fill="#6666ff" stroke="#330000" transform="rotate(12,91,88.31)" pointer-events="all"/></g><g><ellipse cx="106" cy="71.31" rx="5" ry="5" fill="#6666ff" stroke="#330000" transform="rotate(12,106,71.31)" pointer-events="all"/></g><g><ellipse cx="94" cy="79.31" rx="5" ry="5" fill="#6666ff" stroke="#330000" transform="rotate(12,94,79.31)" pointer-events="all"/></g><g><ellipse cx="112" cy="93.31" rx="5" ry="5" fill="#6666ff" stroke="#330000" transform="rotate(12,112,93.31)" pointer-events="all"/></g><g><ellipse cx="100" cy="101.31" rx="5" ry="5" fill="#6666ff" stroke="#330000" transform="rotate(12,100,101.31)" pointer-events="all"/></g><g><ellipse cx="108" cy="60.31" rx="5" ry="5" fill="#6666ff" stroke="#330000" transform="rotate(12,108,60.31)" pointer-events="all"/></g><g><ellipse cx="115" cy="73.31" rx="5" ry="5" fill="#6666ff" stroke="#330000" transform="rotate(12,115,73.31)" pointer-events="all"/></g><g><ellipse cx="123" cy="85.31" rx="5" ry="5" fill="#6666ff" stroke="#330000" transform="rotate(12,123,85.31)" pointer-events="all"/></g><g><ellipse cx="130" cy="97.31" rx="5" ry="5" fill="#6666ff" stroke="#330000" transform="rotate(12,130,97.31)" pointer-events="all"/></g><g><ellipse cx="65" cy="103.31" rx="5" ry="5" fill="#6666ff" stroke="#330000" pointer-events="all"/></g><g><ellipse cx="74" cy="114.31" rx="5" ry="5" fill="#6666ff" stroke="#330000" pointer-events="all"/></g><g><ellipse cx="65" cy="124.31" rx="5" ry="5" fill="#6666ff" stroke="#330000" pointer-events="all"/></g><g><ellipse cx="74" cy="104.31" rx="5" ry="5" fill="#6666ff" stroke="#330000" pointer-events="all"/></g><g><ellipse cx="65" cy="114.31" rx="5" ry="5" fill="#6666ff" stroke="#330000" pointer-events="all"/></g><g><ellipse cx="85" cy="124.31" rx="5" ry="5" fill="#6666ff" stroke="#330000" pointer-events="all"/></g><g><ellipse cx="74" cy="134.31" rx="5" ry="5" fill="#6666ff" stroke="#330000" pointer-events="all"/></g><g><ellipse cx="75" cy="95.31" rx="5" ry="5" fill="#6666ff" stroke="#330000" pointer-events="all"/></g><g><ellipse cx="84" cy="104.31" rx="5" ry="5" fill="#6666ff" stroke="#330000" pointer-events="all"/></g><g><ellipse cx="95" cy="114.31" rx="5" ry="5" fill="#6666ff" stroke="#330000" pointer-events="all"/></g><g><ellipse cx="105" cy="125.31" rx="5" ry="5" fill="#6666ff" stroke="#330000" pointer-events="all"/></g><g><ellipse cx="82" cy="144.31" rx="5" ry="5" fill="#6666ff" stroke="#330000" transform="rotate(25,82,144.31)" pointer-events="all"/></g><g><ellipse cx="87" cy="158.31" rx="5" ry="5" fill="#6666ff" stroke="#330000" transform="rotate(25,87,158.31)" pointer-events="all"/></g><g><ellipse cx="75" cy="163.31" rx="5" ry="5" fill="#6666ff" stroke="#330000" transform="rotate(25,75,163.31)" pointer-events="all"/></g><g><ellipse cx="91" cy="148.31" rx="5" ry="5" fill="#6666ff" stroke="#330000" transform="rotate(25,91,148.31)" pointer-events="all"/></g><g><ellipse cx="79" cy="154.31" rx="5" ry="5" fill="#6666ff" stroke="#330000" transform="rotate(25,79,154.31)" pointer-events="all"/></g><g><ellipse cx="92" cy="171.31" rx="5" ry="5" fill="#6666ff" stroke="#330000" transform="rotate(25,92,171.31)" pointer-events="all"/></g><g><ellipse cx="79" cy="176.31" rx="5" ry="5" fill="#6666ff" stroke="#330000" transform="rotate(25,79,176.31)" pointer-events="all"/></g><g><ellipse cx="96" cy="140.31" rx="5" ry="5" fill="#6666ff" stroke="#330000" transform="rotate(25,96,140.31)" pointer-events="all"/></g><g><ellipse cx="100" cy="153.31" rx="5" ry="5" fill="#6666ff" stroke="#330000" transform="rotate(25,100,153.31)" pointer-events="all"/></g><g><ellipse cx="105" cy="166.31" rx="5" ry="5" fill="#6666ff" stroke="#330000" transform="rotate(25,105,166.31)" pointer-events="all"/></g><g><ellipse cx="110" cy="179.31" rx="5" ry="5" fill="#6666ff" stroke="#330000" transform="rotate(25,110,179.31)" pointer-events="all"/></g><g><ellipse cx="107" cy="135.31" rx="5" ry="5" fill="#6666ff" stroke="#330000" transform="rotate(55,107,135.31)" pointer-events="all"/></g><g><ellipse cx="104" cy="149.31" rx="5" ry="5" fill="#6666ff" stroke="#330000" transform="rotate(55,104,149.31)" pointer-events="all"/></g><g><ellipse cx="90" cy="147.31" rx="5" ry="5" fill="#6666ff" stroke="#330000" transform="rotate(55,90,147.31)" pointer-events="all"/></g><g><ellipse cx="112" cy="143.31" rx="5" ry="5" fill="#6666ff" stroke="#330000" transform="rotate(55,112,143.31)" pointer-events="all"/></g><g><ellipse cx="98" cy="141.31" rx="5" ry="5" fill="#6666ff" stroke="#330000" transform="rotate(55,98,141.31)" pointer-events="all"/></g><g><ellipse cx="101" cy="163.31" rx="5" ry="5" fill="#6666ff" stroke="#330000" transform="rotate(55,101,163.31)" pointer-events="all"/></g><g><ellipse cx="87" cy="160.31" rx="5" ry="5" fill="#6666ff" stroke="#330000" transform="rotate(55,87,160.31)" pointer-events="all"/></g><g><ellipse cx="121" cy="138.31" rx="5" ry="5" fill="#6666ff" stroke="#330000" transform="rotate(55,121,138.31)" pointer-events="all"/></g><g><ellipse cx="118" cy="151.31" rx="5" ry="5" fill="#6666ff" stroke="#330000" transform="rotate(55,118,151.31)" pointer-events="all"/></g><g><ellipse cx="116" cy="166.31" rx="5" ry="5" fill="#6666ff" stroke="#330000" transform="rotate(55,116,166.31)" pointer-events="all"/></g><g><ellipse cx="112" cy="180.31" rx="5" ry="5" fill="#6666ff" stroke="#330000" transform="rotate(55,112,180.31)" pointer-events="all"/></g><g><ellipse cx="117" cy="54.31" rx="5" ry="5" fill="#6666ff" stroke="#330000" transform="rotate(42,117,54.31)" pointer-events="all"/></g><g><ellipse cx="118" cy="69.31" rx="5" ry="5" fill="#6666ff" stroke="#330000" transform="rotate(42,118,69.31)" pointer-events="all"/></g><g><ellipse cx="105" cy="70.31" rx="5" ry="5" fill="#6666ff" stroke="#330000" transform="rotate(42,105,70.31)" pointer-events="all"/></g><g><ellipse cx="124" cy="61.31" rx="5" ry="5" fill="#6666ff" stroke="#330000" transform="rotate(42,124,61.31)" pointer-events="all"/></g><g><ellipse cx="111" cy="62.31" rx="5" ry="5" fill="#6666ff" stroke="#330000" transform="rotate(42,111,62.31)" pointer-events="all"/></g><g><ellipse cx="120" cy="83.31" rx="5" ry="5" fill="#6666ff" stroke="#330000" transform="rotate(42,120,83.31)" pointer-events="all"/></g><g><ellipse cx="104" cy="84.31" rx="5" ry="5" fill="#6666ff" stroke="#330000" transform="rotate(42,104,84.31)" pointer-events="all"/></g><g><ellipse cx="131" cy="55.31" rx="5" ry="5" fill="#6666ff" stroke="#330000" transform="rotate(42,131,55.31)" pointer-events="all"/></g><g><ellipse cx="132" cy="68.31" rx="5" ry="5" fill="#6666ff" stroke="#330000" transform="rotate(42,132,68.31)" pointer-events="all"/></g><g><ellipse cx="133" cy="82.31" rx="5" ry="5" fill="#6666ff" stroke="#330000" transform="rotate(42,133,82.31)" pointer-events="all"/></g><g><ellipse cx="135" cy="97.31" rx="5" ry="5" fill="#6666ff" stroke="#330000" transform="rotate(42,135,97.31)" pointer-events="all"/></g><g><ellipse cx="103" cy="95.31" rx="5" ry="5" fill="#6666ff" stroke="#330000" transform="rotate(67,103,95.31)" pointer-events="all"/></g><g><ellipse cx="98" cy="109.31" rx="5" ry="5" fill="#6666ff" stroke="#330000" transform="rotate(67,98,109.31)" pointer-events="all"/></g><g><ellipse cx="85" cy="105.31" rx="5" ry="5" fill="#6666ff" stroke="#330000" transform="rotate(67,85,105.31)" pointer-events="all"/></g><g><ellipse cx="107" cy="105.31" rx="5" ry="5" fill="#6666ff" stroke="#330000" transform="rotate(67,107,105.31)" pointer-events="all"/></g><g><ellipse cx="95" cy="101.31" rx="5" ry="5" fill="#6666ff" stroke="#330000" transform="rotate(67,95,101.31)" pointer-events="all"/></g><g><ellipse cx="92" cy="123.31" rx="5" ry="5" fill="#6666ff" stroke="#330000" transform="rotate(67,92,123.31)" pointer-events="all"/></g><g><ellipse cx="79" cy="118.31" rx="5" ry="5" fill="#6666ff" stroke="#330000" transform="rotate(67,79,118.31)" pointer-events="all"/></g><g><ellipse cx="115" cy="102.31" rx="5" ry="5" fill="#6666ff" stroke="#330000" transform="rotate(67,115,102.31)" pointer-events="all"/></g><g><ellipse cx="111" cy="114.31" rx="5" ry="5" fill="#6666ff" stroke="#330000" transform="rotate(67,111,114.31)" pointer-events="all"/></g><g><ellipse cx="105" cy="128.31" rx="5" ry="5" fill="#6666ff" stroke="#330000" transform="rotate(67,105,128.31)" pointer-events="all"/></g><g><ellipse cx="102" cy="141.31" rx="5" ry="5" fill="#6666ff" stroke="#330000" transform="rotate(67,102,141.31)" pointer-events="all"/></g><g><ellipse cx="128" cy="105.31" rx="5" ry="5" fill="#6666ff" stroke="#330000" transform="rotate(97,128,105.31)" pointer-events="all"/></g><g><ellipse cx="116" cy="114.31" rx="5" ry="5" fill="#6666ff" stroke="#330000" transform="rotate(97,116,114.31)" pointer-events="all"/></g><g><ellipse cx="105" cy="102.31" rx="5" ry="5" fill="#6666ff" stroke="#330000" transform="rotate(97,105,102.31)" pointer-events="all"/></g><g><ellipse cx="125" cy="115.31" rx="5" ry="5" fill="#6666ff" stroke="#330000" transform="rotate(97,125,115.31)" pointer-events="all"/></g><g><ellipse cx="117" cy="104.31" rx="5" ry="5" fill="#6666ff" stroke="#330000" transform="rotate(97,117,104.31)" pointer-events="all"/></g><g><ellipse cx="104" cy="122.31" rx="5" ry="5" fill="#6666ff" stroke="#330000" transform="rotate(97,104,122.31)" pointer-events="all"/></g><g><ellipse cx="96" cy="110.31" rx="5" ry="5" fill="#6666ff" stroke="#330000" transform="rotate(97,96,110.31)" pointer-events="all"/></g><g><ellipse cx="136" cy="115.31" rx="5" ry="5" fill="#6666ff" stroke="#330000" transform="rotate(97,136,115.31)" pointer-events="all"/></g><g><ellipse cx="124" cy="125.31" rx="5" ry="5" fill="#6666ff" stroke="#330000" transform="rotate(97,124,125.31)" pointer-events="all"/></g><g><ellipse cx="114" cy="134.31" rx="5" ry="5" fill="#6666ff" stroke="#330000" transform="rotate(97,114,134.31)" pointer-events="all"/></g><g><ellipse cx="101" cy="142.31" rx="5" ry="5" fill="#6666ff" stroke="#330000" transform="rotate(97,101,142.31)" pointer-events="all"/></g><g><ellipse cx="134" cy="94.31" rx="5" ry="5" fill="#6666ff" stroke="#330000" transform="rotate(10,134,94.31)" pointer-events="all"/></g><g><ellipse cx="154" cy="98.31" rx="5" ry="5" fill="#6666ff" stroke="#330000" transform="rotate(10,154,98.31)" pointer-events="all"/></g><g><ellipse cx="142" cy="106.31" rx="5" ry="5" fill="#6666ff" stroke="#330000" transform="rotate(10,142,106.31)" pointer-events="all"/></g><g><ellipse cx="174" cy="101.31" rx="5" ry="5" fill="#6666ff" stroke="#330000" transform="rotate(10,174,101.31)" pointer-events="all"/></g><g><ellipse cx="146" cy="102.31" rx="5" ry="5" fill="#6666ff" stroke="#330000" transform="rotate(65,146,102.31)" pointer-events="all"/></g><g><ellipse cx="142" cy="115.31" rx="5" ry="5" fill="#6666ff" stroke="#330000" transform="rotate(65,142,115.31)" pointer-events="all"/></g><g><ellipse cx="128" cy="111.31" rx="5" ry="5" fill="#6666ff" stroke="#330000" transform="rotate(65,128,111.31)" pointer-events="all"/></g><g><ellipse cx="150" cy="110.31" rx="5" ry="5" fill="#6666ff" stroke="#330000" transform="rotate(65,150,110.31)" pointer-events="all"/></g><g><ellipse cx="137" cy="107.31" rx="5" ry="5" fill="#6666ff" stroke="#330000" transform="rotate(65,137,107.31)" pointer-events="all"/></g><g><ellipse cx="137" cy="129.31" rx="5" ry="5" fill="#6666ff" stroke="#330000" transform="rotate(65,137,129.31)" pointer-events="all"/></g><g><ellipse cx="123" cy="124.31" rx="5" ry="5" fill="#6666ff" stroke="#330000" transform="rotate(65,123,124.31)" pointer-events="all"/></g><g><ellipse cx="160" cy="107.31" rx="5" ry="5" fill="#6666ff" stroke="#330000" transform="rotate(65,160,107.31)" pointer-events="all"/></g><g><ellipse cx="154" cy="119.31" rx="5" ry="5" fill="#6666ff" stroke="#330000" transform="rotate(65,154,119.31)" pointer-events="all"/></g><g><ellipse cx="150" cy="133.31" rx="5" ry="5" fill="#6666ff" stroke="#330000" transform="rotate(65,150,133.31)" pointer-events="all"/></g><g><ellipse cx="145" cy="147.31" rx="5" ry="5" fill="#6666ff" stroke="#330000" transform="rotate(65,145,147.31)" pointer-events="all"/></g><g><ellipse cx="174" cy="103.31" rx="5" ry="5" fill="#6666ff" stroke="#330000" transform="rotate(107,174,103.31)" pointer-events="all"/></g><g><ellipse cx="162" cy="111.31" rx="5" ry="5" fill="#6666ff" stroke="#330000" transform="rotate(107,162,111.31)" pointer-events="all"/></g><g><ellipse cx="205" cy="113.31" rx="5" ry="5" fill="#6666ff" stroke="#330000" transform="rotate(137,205,113.31)" pointer-events="all"/></g><g><ellipse cx="191" cy="114.31" rx="5" ry="5" fill="#6666ff" stroke="#330000" transform="rotate(137,191,114.31)" pointer-events="all"/></g><g><ellipse cx="177" cy="114.31" rx="5" ry="5" fill="#6666ff" stroke="#330000" transform="rotate(137,177,114.31)" pointer-events="all"/></g><g><ellipse cx="162" cy="112.31" rx="5" ry="5" fill="#6666ff" stroke="#330000" transform="rotate(137,162,112.31)" pointer-events="all"/></g><g><ellipse cx="170" cy="111.31" rx="5" ry="5" fill="#6666ff" stroke="#330000" transform="rotate(95,170,111.31)" pointer-events="all"/></g><g><ellipse cx="159" cy="119.31" rx="5" ry="5" fill="#6666ff" stroke="#330000" transform="rotate(95,159,119.31)" pointer-events="all"/></g><g><ellipse cx="150" cy="109.31" rx="5" ry="5" fill="#6666ff" stroke="#330000" transform="rotate(95,150,109.31)" pointer-events="all"/></g><g><ellipse cx="169" cy="120.31" rx="5" ry="5" fill="#6666ff" stroke="#330000" transform="rotate(95,169,120.31)" pointer-events="all"/></g><g><ellipse cx="159" cy="109.31" rx="5" ry="5" fill="#6666ff" stroke="#330000" transform="rotate(95,159,109.31)" pointer-events="all"/></g><g><ellipse cx="148" cy="128.31" rx="5" ry="5" fill="#6666ff" stroke="#330000" transform="rotate(95,148,128.31)" pointer-events="all"/></g><g><ellipse cx="139" cy="117.31" rx="5" ry="5" fill="#6666ff" stroke="#330000" transform="rotate(95,139,117.31)" pointer-events="all"/></g><g><ellipse cx="179" cy="121.31" rx="5" ry="5" fill="#6666ff" stroke="#330000" transform="rotate(95,179,121.31)" pointer-events="all"/></g><g><ellipse cx="168" cy="130.31" rx="5" ry="5" fill="#6666ff" stroke="#330000" transform="rotate(95,168,130.31)" pointer-events="all"/></g><g><ellipse cx="157" cy="139.31" rx="5" ry="5" fill="#6666ff" stroke="#330000" transform="rotate(95,157,139.31)" pointer-events="all"/></g><g><ellipse cx="146" cy="148.31" rx="5" ry="5" fill="#6666ff" stroke="#330000" transform="rotate(95,146,148.31)" pointer-events="all"/></g><g><ellipse cx="143" cy="70.31" rx="5" ry="5" fill="#6666ff" stroke="#330000" transform="rotate(50,143,70.31)" pointer-events="all"/></g><g><ellipse cx="143" cy="83.31" rx="5" ry="5" fill="#6666ff" stroke="#330000" transform="rotate(50,143,83.31)" pointer-events="all"/></g><g><ellipse cx="149" cy="78.31" rx="5" ry="5" fill="#6666ff" stroke="#330000" transform="rotate(50,149,78.31)" pointer-events="all"/></g><g><ellipse cx="136" cy="76.31" rx="5" ry="5" fill="#6666ff" stroke="#330000" transform="rotate(50,136,76.31)" pointer-events="all"/></g><g><ellipse cx="158" cy="70.31" rx="5" ry="5" fill="#6666ff" stroke="#330000" transform="rotate(50,158,70.31)" pointer-events="all"/></g><g><ellipse cx="155" cy="86.31" rx="5" ry="5" fill="#6666ff" stroke="#330000" transform="rotate(50,155,86.31)" pointer-events="all"/></g><g><ellipse cx="169" cy="71.31" rx="5" ry="5" fill="#6666ff" stroke="#330000" transform="rotate(80,169,71.31)" pointer-events="all"/></g><g><ellipse cx="160" cy="85.31" rx="5" ry="5" fill="#6666ff" stroke="#330000" transform="rotate(80,160,85.31)" pointer-events="all"/></g><g><ellipse cx="150" cy="76.31" rx="5" ry="5" fill="#6666ff" stroke="#330000" transform="rotate(80,150,76.31)" pointer-events="all"/></g><g><ellipse cx="170" cy="82.31" rx="5" ry="5" fill="#6666ff" stroke="#330000" transform="rotate(80,170,82.31)" pointer-events="all"/></g><g><ellipse cx="158" cy="74.31" rx="5" ry="5" fill="#6666ff" stroke="#330000" transform="rotate(80,158,74.31)" pointer-events="all"/></g><g><ellipse cx="140" cy="88.31" rx="5" ry="5" fill="#6666ff" stroke="#330000" transform="rotate(80,140,88.31)" pointer-events="all"/></g><g><ellipse cx="180" cy="81.31" rx="5" ry="5" fill="#6666ff" stroke="#330000" transform="rotate(80,180,81.31)" pointer-events="all"/></g><g><ellipse cx="172" cy="90.31" rx="5" ry="5" fill="#6666ff" stroke="#330000" transform="rotate(80,172,90.31)" pointer-events="all"/></g></g></svg>