<?xml version="1.0" encoding="UTF-8"?>
<!DOCTYPE svg PUBLIC "-//W3C//DTD SVG 1.1//EN" "http://www.w3.org/Graphics/SVG/1.1/DTD/svg11.dtd">
<svg xmlns="http://www.w3.org/2000/svg" xmlns:xlink="http://www.w3.org/1999/xlink" version="1.1" width="281px" height="186px" viewBox="-0.5 -0.5 281 186"><defs/><g><g/><g><ellipse cx="66" cy="82.31" rx="5" ry="5" fill="#6666ff" stroke="#330000" transform="rotate(-30,66,82.31)" pointer-events="all"/></g><g><ellipse cx="80" cy="86.31" rx="5" ry="5" fill="#6666ff" stroke="#330000" transform="rotate(-30,80,86.31)" pointer-events="all"/></g><g><ellipse cx="77" cy="100.31" rx="5" ry="5" fill="#6666ff" stroke="#330000" transform="rotate(-30,77,100.31)" pointer-events="all"/></g><g><ellipse cx="75" cy="77.31" rx="5" ry="5" fill="#6666ff" stroke="#330000" transform="rotate(-30,75,77.31)" pointer-events="all"/></g><g><ellipse cx="72" cy="91.31" rx="5" ry="5" fill="#6666ff" stroke="#330000" transform="rotate(-30,72,91.31)" pointer-events="all"/></g><g><ellipse cx="95" cy="90.31" rx="5" ry="5" fill="#6666ff" stroke="#330000" transform="rotate(-30,95,90.31)" pointer-events="all"/></g><g><ellipse cx="90" cy="103.31" rx="5" ry="5" fill="#6666ff" stroke="#330000" transform="rotate(-30,90,103.31)" pointer-events="all"/></g><g><ellipse cx="71" cy="69.31" rx="5" ry="5" fill="#6666ff" stroke="#330000" transform="rotate(-30,71,69.31)" pointer-events="all"/></g><g><ellipse cx="84" cy="72.31" rx="5" ry="5" fill="#6666ff" stroke="#330000" transform="rotate(-30,84,72.31)" pointer-events="all"/></g><g><ellipse cx="98" cy="76.31" rx="5" ry="5" fill="#6666ff" stroke="#330000" transform="rotate(-30,98,76.31)" pointer-events="all"/></g><g><ellipse cx="112" cy="80.31" rx="5" ry="5" fill="#6666ff" stroke="#330000" transform="rotate(-30,112,80.31)" pointer-events="all"/></g><g><ellipse cx="104" cy="21.31" rx="5" ry="5" fill="#6666ff" stroke="#330000" transform="rotate(12,104,21.31)" pointer-events="all"/></g><g><ellipse cx="113" cy="34.31" rx="5" ry="5" fill="#6666ff" stroke="#330000" transform="rotate(12,113,34.31)" pointer-events="all"/></g><g><ellipse cx="99" cy="41.31" rx="5" ry="5" fill="#6666ff" stroke="#330000" transform="rotate(12,99,41.31)" pointer-events="all"/></g><g><ellipse cx="114" cy="24.31" rx="5" ry="5" fill="#6666ff" stroke="#330000" transform="rotate(12,114,24.31)" pointer-events="all"/></g><g><ellipse cx="102" cy="32.31" rx="5" ry="5" fill="#6666ff" stroke="#330000" transform="rotate(12,102,32.31)" pointer-events="all"/></g><g><ellipse cx="120" cy="46.31" rx="5" ry="5" fill="#6666ff" stroke="#330000" transform="rotate(12,120,46.31)" pointer-events="all"/></g><g><ellipse cx="108" cy="54.31" rx="5" ry="5" fill="#6666ff" stroke="#330000" transform="rotate(12,108,54.31)" pointer-events="all"/></g><g><ellipse cx="116" cy="13.31" rx="5" ry="5" fill="#6666ff" stroke="#330000" transform="rotate(12,116,13.31)" pointer-events="all"/></g><g><ellipse cx="123" cy="26.31" rx="5" ry="5" fill="#6666ff" stroke="#330000" transform="rotate(12,123,26.31)" pointer-events="all"/></g><g><ellipse cx="131" cy="38.31" rx="5" ry="5" fill="#6666ff" stroke="#330000" transform="rotate(12,131,38.31)" pointer-events="all"/></g><g><ellipse cx="138" cy="50.31" rx="5" ry="5" fill="#6666ff" stroke="#330000" transform="rotate(12,138,50.31)" pointer-events="all"/></g><g><ellipse cx="73" cy="56.31" rx="5" ry="5" fill="#6666ff" stroke="#330000" pointer-events="all"/></g><g><ellipse cx="82" cy="67.31" rx="5" ry="5" fill="#6666ff" stroke="#330000" pointer-events="all"/></g><g><ellipse cx="73" cy="77.31" rx="5" ry="5" fill="#6666ff" stroke="#330000" pointer-events="all"/></g><g><ellipse cx="82" cy="57.31" rx="5" ry="5" fill="#6666ff" stroke="#330000" pointer-events="all"/></g><g><ellipse cx="73" cy="67.31" rx="5" ry="5" fill="#6666ff" stroke="#330000" pointer-events="all"/></g><g><ellipse cx="93" cy="77.31" rx="5" ry="5" fill="#6666ff" stroke="#330000" pointer-events="all"/></g><g><ellipse cx="82" cy="87.31" rx="5" ry="5" fill="#6666ff" stroke="#330000" pointer-events="all"/></g><g><ellipse cx="83" cy="48.31" rx="5" ry="5" fill="#6666ff" stroke="#330000" pointer-events="all"/></g><g><ellipse cx="92" cy="57.31" rx="5" ry="5" fill="#6666ff" stroke="#330000" pointer-events="all"/></g><g><ellipse cx="103" cy="67.31" rx="5" ry="5" fill="#6666ff" stroke="#330000" pointer-events="all"/></g><g><ellipse cx="113" cy="78.31" rx="5" ry="5" fill="#6666ff" stroke="#330000" pointer-events="all"/></g><g><ellipse cx="90" cy="97.31" rx="5" ry="5" fill="#6666ff" stroke="#330000" transform="rotate(25,90,97.31)" pointer-events="all"/></g><g><ellipse cx="95" cy="111.31" rx="5" ry="5" fill="#6666ff" stroke="#330000" transform="rotate(25,95,111.31)" pointer-events="all"/></g><g><ellipse cx="83" cy="116.31" rx="5" ry="5" fill="#6666ff" stroke="#330000" transform="rotate(25,83,116.31)" pointer-events="all"/></g><g><ellipse cx="99" cy="101.31" rx="5" ry="5" fill="#6666ff" stroke="#330000" transform="rotate(25,99,101.31)" pointer-events="all"/></g><g><ellipse cx="87" cy="107.31" rx="5" ry="5" fill="#6666ff" stroke="#330000" transform="rotate(25,87,107.31)" pointer-events="all"/></g><g><ellipse cx="100" cy="124.31" rx="5" ry="5" fill="#6666ff" stroke="#330000" transform="rotate(25,100,124.31)" pointer-events="all"/></g><g><ellipse cx="87" cy="129.31" rx="5" ry="5" fill="#6666ff" stroke="#330000" transform="rotate(25,87,129.31)" pointer-events="all"/></g><g><ellipse cx="104" cy="93.31" rx="5" ry="5" fill="#6666ff" stroke="#330000" transform="rotate(25,104,93.31)" pointer-events="all"/></g><g><ellipse cx="108" cy="106.31" rx="5" ry="5" fill="#6666ff" stroke="#330000" transform="rotate(25,108,106.31)" pointer-events="all"/></g><g><ellipse cx="113" cy="119.31" rx="5" ry="5" fill="#6666ff" stroke="#330000" transform="rotate(25,113,119.31)" pointer-events="all"/></g><g><ellipse cx="118" cy="132.31" rx="5" ry="5" fill="#6666ff" stroke="#330000" transform="rotate(25,118,132.31)" pointer-events="all"/></g><g><ellipse cx="115" cy="88.31" rx="5" ry="5" fill="#6666ff" stroke="#330000" transform="rotate(55,115,88.31)" pointer-events="all"/></g><g><ellipse cx="112" cy="102.31" rx="5" ry="5" fill="#6666ff" stroke="#330000" transform="rotate(55,112,102.31)" pointer-events="all"/></g><g><ellipse cx="98" cy="100.31" rx="5" ry="5" fill="#6666ff" stroke="#330000" transform="rotate(55,98,100.31)" pointer-events="all"/></g><g><ellipse cx="120" cy="96.31" rx="5" ry="5" fill="#6666ff" stroke="#330000" transform="rotate(55,120,96.31)" pointer-events="all"/></g><g><ellipse cx="106" cy="94.31" rx="5" ry="5" fill="#6666ff" stroke="#330000" transform="rotate(55,106,94.31)" pointer-events="all"/></g><g><ellipse cx="109" cy="116.31" rx="5" ry="5" fill="#6666ff" stroke="#330000" transform="rotate(55,109,116.31)" pointer-events="all"/></g><g><ellipse cx="95" cy="113.31" rx="5" ry="5" fill="#6666ff" stroke="#330000" transform="rotate(55,95,113.31)" pointer-events="all"/></g><g><ellipse cx="129" cy="91.31" rx="5" ry="5" fill="#6666ff" stroke="#330000" transform="rotate(55,129,91.31)" pointer-events="all"/></g><g><ellipse cx="126" cy="104.31" rx="5" ry="5" fill="#6666ff" stroke="#330000" transform="rotate(55,126,104.31)" pointer-events="all"/></g><g><ellipse cx="124" cy="119.31" rx="5" ry="5" fill="#6666ff" stroke="#330000" transform="rotate(55,124,119.31)" pointer-events="all"/></g><g><ellipse cx="120" cy="133.31" rx="5" ry="5" fill="#6666ff" stroke="#330000" transform="rotate(55,120,133.31)" pointer-events="all"/></g><g><ellipse cx="125" cy="7.31" rx="5" ry="5" fill="#6666ff" stroke="#330000" transform="rotate(42,125,7.31)" pointer-events="all"/></g><g><ellipse cx="126" cy="22.31" rx="5" ry="5" fill="#6666ff" stroke="#330000" transform="rotate(42,126,22.31)" pointer-events="all"/></g><g><ellipse cx="113" cy="23.31" rx="5" ry="5" fill="#6666ff" stroke="#330000" transform="rotate(42,113,23.31)" pointer-events="all"/></g><g><ellipse cx="132" cy="14.31" rx="5" ry="5" fill="#6666ff" stroke="#330000" transform="rotate(42,132,14.31)" pointer-events="all"/></g><g><ellipse cx="119" cy="15.31" rx="5" ry="5" fill="#6666ff" stroke="#330000" transform="rotate(42,119,15.31)" pointer-events="all"/></g><g><ellipse cx="128" cy="36.31" rx="5" ry="5" fill="#6666ff" stroke="#330000" transform="rotate(42,128,36.31)" pointer-events="all"/></g><g><ellipse cx="112" cy="37.31" rx="5" ry="5" fill="#6666ff" stroke="#330000" transform="rotate(42,112,37.31)" pointer-events="all"/></g><g><ellipse cx="139" cy="8.31" rx="5" ry="5" fill="#6666ff" stroke="#330000" transform="rotate(42,139,8.31)" pointer-events="all"/></g><g><ellipse cx="140" cy="21.31" rx="5" ry="5" fill="#6666ff" stroke="#330000" transform="rotate(42,140,21.31)" pointer-events="all"/></g><g><ellipse cx="141" cy="35.31" rx="5" ry="5" fill="#6666ff" stroke="#330000" transform="rotate(42,141,35.31)" pointer-events="all"/></g><g><ellipse cx="143" cy="50.31" rx="5" ry="5" fill="#6666ff" stroke="#330000" transform="rotate(42,143,50.31)" pointer-events="all"/></g><g><ellipse cx="111" cy="48.31" rx="5" ry="5" fill="#6666ff" stroke="#330000" transform="rotate(67,111,48.31)" pointer-events="all"/></g><g><ellipse cx="106" cy="62.31" rx="5" ry="5" fill="#6666ff" stroke="#330000" transform="rotate(67,106,62.31)" pointer-events="all"/></g><g><ellipse cx="93" cy="58.31" rx="5" ry="5" fill="#6666ff" stroke="#330000" transform="rotate(67,93,58.31)" pointer-events="all"/></g><g><ellipse cx="115" cy="58.31" rx="5" ry="5" fill="#6666ff" stroke="#330000" transform="rotate(67,115,58.31)" pointer-events="all"/></g><g><ellipse cx="103" cy="54.31" rx="5" ry="5" fill="#6666ff" stroke="#330000" transform="rotate(67,103,54.31)" pointer-events="all"/></g><g><ellipse cx="100" cy="76.31" rx="5" ry="5" fill="#6666ff" stroke="#330000" transform="rotate(67,100,76.31)" pointer-events="all"/></g><g><ellipse cx="87" cy="71.31" rx="5" ry="5" fill="#6666ff" stroke="#330000" transform="rotate(67,87,71.31)" pointer-events="all"/></g><g><ellipse cx="123" cy="55.31" rx="5" ry="5" fill="#6666ff" stroke="#330000" transform="rotate(67,123,55.31)" pointer-events="all"/></g><g><ellipse cx="119" cy="67.31" rx="5" ry="5" fill="#6666ff" stroke="#330000" transform="rotate(67,119,67.31)" pointer-events="all"/></g><g><ellipse cx="113" cy="81.31" rx="5" ry="5" fill="#6666ff" stroke="#330000" transform="rotate(67,113,81.31)" pointer-events="all"/></g><g><ellipse cx="110" cy="94.31" rx="5" ry="5" fill="#6666ff" stroke="#330000" transform="rotate(67,110,94.31)" pointer-events="all"/></g><g><ellipse cx="136" cy="58.31" rx="5" ry="5" fill="#6666ff" stroke="#330000" transform="rotate(97,136,58.31)" pointer-events="all"/></g><g><ellipse cx="124" cy="67.31" rx="5" ry="5" fill="#6666ff" stroke="#330000" transform="rotate(97,124,67.31)" pointer-events="all"/></g><g><ellipse cx="113" cy="55.31" rx="5" ry="5" fill="#6666ff" stroke="#330000" transform="rotate(97,113,55.31)" pointer-events="all"/></g><g><ellipse cx="133" cy="68.31" rx="5" ry="5" fill="#6666ff" stroke="#330000" transform="rotate(97,133,68.31)" pointer-events="all"/></g><g><ellipse cx="125" cy="57.31" rx="5" ry="5" fill="#6666ff" stroke="#330000" transform="rotate(97,125,57.31)" pointer-events="all"/></g><g><ellipse cx="112" cy="75.31" rx="5" ry="5" fill="#6666ff" stroke="#330000" transform="rotate(97,112,75.31)" pointer-events="all"/></g><g><ellipse cx="104" cy="63.31" rx="5" ry="5" fill="#6666ff" stroke="#330000" transform="rotate(97,104,63.31)" pointer-events="all"/></g><g><ellipse cx="144" cy="68.31" rx="5" ry="5" fill="#6666ff" stroke="#330000" transform="rotate(97,144,68.31)" pointer-events="all"/></g><g><ellipse cx="132" cy="78.31" rx="5" ry="5" fill="#6666ff" stroke="#330000" transform="rotate(97,132,78.31)" pointer-events="all"/></g><g><ellipse cx="122" cy="87.31" rx="5" ry="5" fill="#6666ff" stroke="#330000" transform="rotate(97,122,87.31)" pointer-events="all"/></g><g><ellipse cx="109" cy="95.31" rx="5" ry="5" fill="#6666ff" stroke="#330000" transform="rotate(97,109,95.31)" pointer-events="all"/></g><g><ellipse cx="142" cy="47.31" rx="5" ry="5" fill="#6666ff" stroke="#330000" transform="rotate(10,142,47.31)" pointer-events="all"/></g><g><ellipse cx="162" cy="51.31" rx="5" ry="5" fill="#6666ff" stroke="#330000" transform="rotate(10,162,51.31)" pointer-events="all"/></g><g><ellipse cx="150" cy="59.31" rx="5" ry="5" fill="#6666ff" stroke="#330000" transform="rotate(10,150,59.31)" pointer-events="all"/></g><g><ellipse cx="182" cy="54.31" rx="5" ry="5" fill="#6666ff" stroke="#330000" transform="rotate(10,182,54.31)" pointer-events="all"/></g><g><ellipse cx="154" cy="55.31" rx="5" ry="5" fill="#6666ff" stroke="#330000" transform="rotate(65,154,55.31)" pointer-events="all"/></g><g><ellipse cx="150" cy="68.31" rx="5" ry="5" fill="#6666ff" stroke="#330000" transform="rotate(65,150,68.31)" pointer-events="all"/></g><g><ellipse cx="136" cy="64.31" rx="5" ry="5" fill="#6666ff" stroke="#330000" transform="rotate(65,136,64.31)" pointer-events="all"/></g><g><ellipse cx="158" cy="63.31" rx="5" ry="5" fill="#6666ff" stroke="#330000" transform="rotate(65,158,63.31)" pointer-events="all"/></g><g><ellipse cx="145" cy="60.31" rx="5" ry="5" fill="#6666ff" stroke="#330000" transform="rotate(65,145,60.31)" pointer-events="all"/></g><g><ellipse cx="145" cy="82.31" rx="5" ry="5" fill="#6666ff" stroke="#330000" transform="rotate(65,145,82.31)" pointer-events="all"/></g><g><ellipse cx="131" cy="77.31" rx="5" ry="5" fill="#6666ff" stroke="#330000" transform="rotate(65,131,77.31)" pointer-events="all"/></g><g><ellipse cx="168" cy="60.31" rx="5" ry="5" fill="#6666ff" stroke="#330000" transform="rotate(65,168,60.31)" pointer-events="all"/></g><g><ellipse cx="162" cy="72.31" rx="5" ry="5" fill="#6666ff" stroke="#330000" transform="rotate(65,162,72.31)" pointer-events="all"/></g><g><ellipse cx="158" cy="86.31" rx="5" ry="5" fill="#6666ff" stroke="#330000" transform="rotate(65,158,86.31)" pointer-events="all"/></g><g><ellipse cx="153" cy="100.31" rx="5" ry="5" fill="#6666ff" stroke="#330000" transform="rotate(65,153,100.31)" pointer-events="all"/></g><g><ellipse cx="182" cy="56.31" rx="5" ry="5" fill="#6666ff" stroke="#330000" transform="rotate(107,182,56.31)" pointer-events="all"/></g><g><ellipse cx="170" cy="64.31" rx="5" ry="5" fill="#6666ff" stroke="#330000" transform="rotate(107,170,64.31)" pointer-events="all"/></g><g><ellipse cx="213" cy="66.31" rx="5" ry="5" fill="#6666ff" stroke="#330000" transform="rotate(137,213,66.31)" pointer-events="all"/></g><g><ellipse cx="199" cy="67.31" rx="5" ry="5" fill="#6666ff" stroke="#330000" transform="rotate(137,199,67.31)" pointer-events="all"/></g><g><ellipse cx="185" cy="67.31" rx="5" ry="5" fill="#6666ff" stroke="#330000" transform="rotate(137,185,67.31)" pointer-events="all"/></g><g><ellipse cx="170" cy="65.31" rx="5" ry="5" fill="#6666ff" stroke="#330000" transform="rotate(137,170,65.31)" pointer-events="all"/></g><g><ellipse cx="178" cy="64.31" rx="5" ry="5" fill="#6666ff" stroke="#330000" transform="rotate(95,178,64.31)" pointer-events="all"/></g><g><ellipse cx="167" cy="72.31" rx="5" ry="5" fill="#6666ff" stroke="#330000" transform="rotate(95,167,72.31)" pointer-events="all"/></g><g><ellipse cx="158" cy="62.31" rx="5" ry="5" fill="#6666ff" stroke="#330000" transform="rotate(95,158,62.31)" pointer-events="all"/></g><g><ellipse cx="177" cy="73.31" rx="5" ry="5" fill="#6666ff" stroke="#330000" transform="rotate(95,177,73.31)" pointer-events="all"/></g><g><ellipse cx="167" cy="62.31" rx="5" ry="5" fill="#6666ff" stroke="#330000" transform="rotate(95,167,62.31)" pointer-events="all"/></g><g><ellipse cx="156" cy="81.31" rx="5" ry="5" fill="#6666ff" stroke="#330000" transform="rotate(95,156,81.31)" pointer-events="all"/></g><g><ellipse cx="147" cy="70.31" rx="5" ry="5" fill="#6666ff" stroke="#330000" transform="rotate(95,147,70.31)" pointer-events="all"/></g><g><ellipse cx="187" cy="74.31" rx="5" ry="5" fill="#6666ff" stroke="#330000" transform="rotate(95,187,74.31)" pointer-events="all"/></g><g><ellipse cx="176" cy="83.31" rx="5" ry="5" fill="#6666ff" stroke="#330000" transform="rotate(95,176,83.31)" pointer-events="all"/></g><g><ellipse cx="165" cy="92.31" rx="5" ry="5" fill="#6666ff" stroke="#330000" transform="rotate(95,165,92.31)" pointer-events="all"/></g><g><ellipse cx="154" cy="101.31" rx="5" ry="5" fill="#6666ff" stroke="#330000" transform="rotate(95,154,101.31)" pointer-events="all"/></g><g><ellipse cx="151" cy="23.31" rx="5" ry="5" fill="#6666ff" stroke="#330000" transform="rotate(50,151,23.31)" pointer-events="all"/></g><g><ellipse cx="151" cy="36.31" rx="5" ry="5" fill="#6666ff" stroke="#330000" transform="rotate(50,151,36.31)" pointer-events="all"/></g><g><ellipse cx="157" cy="31.31" rx="5" ry="5" fill="#6666ff" stroke="#330000" transform="rotate(50,157,31.31)" pointer-events="all"/></g><g><ellipse cx="144" cy="29.31" rx="5" ry="5" fill="#6666ff" stroke="#330000" transform="rotate(50,144,29.31)" pointer-events="all"/></g><g><ellipse cx="166" cy="23.31" rx="5" ry="5" fill="#6666ff" stroke="#330000" transform="rotate(50,166,23.31)" pointer-events="all"/></g><g><ellipse cx="163" cy="39.31" rx="5" ry="5" fill="#6666ff" stroke="#330000" transform="rotate(50,163,39.31)" pointer-events="all"/></g><g><ellipse cx="177" cy="24.31" rx="5" ry="5" fill="#6666ff" stroke="#330000" transform="rotate(80,177,24.31)" pointer-events="all"/></g><g><ellipse cx="168" cy="38.31" rx="5" ry="5" fill="#6666ff" stroke="#330000" transform="rotate(80,168,38.31)" pointer-events="all"/></g><g><ellipse cx="158" cy="29.31" rx="5" ry="5" fill="#6666ff" stroke="#330000" transform="rotate(80,158,29.31)" pointer-events="all"/></g><g><ellipse cx="178" cy="35.31" rx="5" ry="5" fill="#6666ff" stroke="#330000" transform="rotate(80,178,35.31)" pointer-events="all"/></g><g><ellipse cx="166" cy="27.31" rx="5" ry="5" fill="#6666ff" stroke="#330000" transform="rotate(80,166,27.31)" pointer-events="all"/></g><g><ellipse cx="148" cy="41.31" rx="5" ry="5" fill="#6666ff" stroke="#330000" transform="rotate(80,148,41.31)" pointer-events="all"/></g><g><ellipse cx="188" cy="34.31" rx="5" ry="5" fill="#6666ff" stroke="#330000" transform="rotate(80,188,34.31)" pointer-events="all"/></g><g><ellipse cx="180" cy="43.31" rx="5" ry="5" fill="#6666ff" stroke="#330000" transform="rotate(80,180,43.31)" pointer-events="all"/></g><g/><g><ellipse cx="69" cy="55" rx="5" ry="5" fill="#ff6666" stroke="rgb(0, 0, 0)" pointer-events="all"/></g><g><ellipse cx="79" cy="65" rx="5" ry="5" fill="#ff6666" stroke="rgb(0, 0, 0)" pointer-events="all"/></g><g><ellipse cx="89" cy="75" rx="5" ry="5" fill="#ff6666" stroke="rgb(0, 0, 0)" pointer-events="all"/></g><g><ellipse cx="99" cy="85" rx="5" ry="5" fill="#ff6666" stroke="rgb(0, 0, 0)" pointer-events="all"/></g><g><ellipse cx="109" cy="95" rx="5" ry="5" fill="#ff6666" stroke="rgb(0, 0, 0)" pointer-events="all"/></g><g><ellipse cx="59" cy="75" rx="5" ry="5" fill="#ff6666" stroke="rgb(0, 0, 0)" pointer-events="all"/></g><g><ellipse cx="69" cy="85" rx="5" ry="5" fill="#ff6666" stroke="rgb(0, 0, 0)" pointer-events="all"/></g><g><ellipse cx="69" cy="69.33" rx="5" ry="5" fill="#ff6666" stroke="rgb(0, 0, 0)" pointer-events="all"/></g><g><ellipse cx="79" cy="79.33" rx="5" ry="5" fill="#ff6666" stroke="rgb(0, 0, 0)" pointer-events="all"/></g><g><ellipse cx="59" cy="65" rx="5" ry="5" fill="#ff6666" stroke="rgb(0, 0, 0)" pointer-events="all"/></g><g/><g><ellipse cx="101" cy="43" rx="5" ry="5" fill="#ff6666" stroke="rgb(0, 0, 0)" transform="rotate(66,101,43)" pointer-events="all"/></g><g><ellipse cx="96" cy="56" rx="5" ry="5" fill="#ff6666" stroke="rgb(0, 0, 0)" transform="rotate(66,96,56)" pointer-events="all"/></g><g><ellipse cx="91" cy="70" rx="5" ry="5" fill="#ff6666" stroke="rgb(0, 0, 0)" transform="rotate(66,91,70)" pointer-events="all"/></g><g><ellipse cx="86" cy="83" rx="5" ry="5" fill="#ff6666" stroke="rgb(0, 0, 0)" transform="rotate(66,86,83)" pointer-events="all"/></g><g><ellipse cx="81" cy="96" rx="5" ry="5" fill="#ff6666" stroke="rgb(0, 0, 0)" transform="rotate(66,81,96)" pointer-events="all"/></g><g><ellipse cx="79" cy="42" rx="5" ry="5" fill="#ff6666" stroke="rgb(0, 0, 0)" transform="rotate(66,79,42)" pointer-events="all"/></g><g><ellipse cx="74" cy="55" rx="5" ry="5" fill="#ff6666" stroke="rgb(0, 0, 0)" transform="rotate(66,74,55)" pointer-events="all"/></g><g><ellipse cx="88" cy="49" rx="5" ry="5" fill="#ff6666" stroke="rgb(0, 0, 0)" transform="rotate(66,88,49)" pointer-events="all"/></g><g><ellipse cx="83" cy="62" rx="5" ry="5" fill="#ff6666" stroke="rgb(0, 0, 0)" transform="rotate(66,83,62)" pointer-events="all"/></g><g><ellipse cx="88" cy="38" rx="5" ry="5" fill="#ff6666" stroke="rgb(0, 0, 0)" transform="rotate(66,88,38)" pointer-events="all"/></g><g><ellipse cx="44" cy="70" rx="5" ry="5" fill="#ff6666" stroke="rgb(0, 0, 0)" pointer-events="all"/></g><g><ellipse cx="54" cy="80" rx="5" ry="5" fill="#ff6666" stroke="rgb(0, 0, 0)" pointer-events="all"/></g><g><ellipse cx="64" cy="90" rx="5" ry="5" fill="#ff6666" stroke="rgb(0, 0, 0)" pointer-events="all"/></g><g><ellipse cx="74" cy="100" rx="5" ry="5" fill="#ff6666" stroke="rgb(0, 0, 0)" pointer-events="all"/></g><g><ellipse cx="84" cy="110" rx="5" ry="5" fill="#ff6666" stroke="rgb(0, 0, 0)" pointer-events="all"/></g><g><ellipse cx="34" cy="90" rx="5" ry="5" fill="#ff6666" stroke="rgb(0, 0, 0)" pointer-events="all"/></g><g><ellipse cx="44" cy="100" rx="5" ry="5" fill="#ff6666" stroke="rgb(0, 0, 0)" pointer-events="all"/></g><g><ellipse cx="44" cy="84.33" rx="5" ry="5" fill="#ff6666" stroke="rgb(0, 0, 0)" pointer-events="all"/></g><g><ellipse cx="54" cy="94.33" rx="5" ry="5" fill="#ff6666" stroke="rgb(0, 0, 0)" pointer-events="all"/></g><g><ellipse cx="34" cy="80" rx="5" ry="5" fill="#ff6666" stroke="rgb(0, 0, 0)" pointer-events="all"/></g><g/><g><ellipse cx="76" cy="58" rx="5" ry="5" fill="#ff6666" stroke="rgb(0, 0, 0)" transform="rotate(66,76,58)" pointer-events="all"/></g><g><ellipse cx="71" cy="71" rx="5" ry="5" fill="#ff6666" stroke="rgb(0, 0, 0)" transform="rotate(66,71,71)" pointer-events="all"/></g><g><ellipse cx="66" cy="85" rx="5" ry="5" fill="#ff6666" stroke="rgb(0, 0, 0)" transform="rotate(66,66,85)" pointer-events="all"/></g><g><ellipse cx="61" cy="98" rx="5" ry="5" fill="#ff6666" stroke="rgb(0, 0, 0)" transform="rotate(66,61,98)" pointer-events="all"/></g><g><ellipse cx="56" cy="111" rx="5" ry="5" fill="#ff6666" stroke="rgb(0, 0, 0)" transform="rotate(66,56,111)" pointer-events="all"/></g><g><ellipse cx="54" cy="57" rx="5" ry="5" fill="#ff6666" stroke="rgb(0, 0, 0)" transform="rotate(66,54,57)" pointer-events="all"/></g><g><ellipse cx="49" cy="70" rx="5" ry="5" fill="#ff6666" stroke="rgb(0, 0, 0)" transform="rotate(66,49,70)" pointer-events="all"/></g><g><ellipse cx="63" cy="64" rx="5" ry="5" fill="#ff6666" stroke="rgb(0, 0, 0)" transform="rotate(66,63,64)" pointer-events="all"/></g><g><ellipse cx="58" cy="77" rx="5" ry="5" fill="#ff6666" stroke="rgb(0, 0, 0)" transform="rotate(66,58,77)" pointer-events="all"/></g><g><ellipse cx="63" cy="53" rx="5" ry="5" fill="#ff6666" stroke="rgb(0, 0, 0)" transform="rotate(66,63,53)" pointer-events="all"/></g><g/><g><ellipse cx="92.46" cy="103" rx="5" ry="5" fill="#ff6666" stroke="rgb(0, 0, 0)" transform="rotate(50,92.46,103)" pointer-events="all"/></g><g><ellipse cx="91.46" cy="117" rx="5" ry="5" fill="#ff6666" stroke="rgb(0, 0, 0)" transform="rotate(50,91.46,117)" pointer-events="all"/></g><g><ellipse cx="90.46" cy="131" rx="5" ry="5" fill="#ff6666" stroke="rgb(0, 0, 0)" transform="rotate(50,90.46,131)" pointer-events="all"/></g><g><ellipse cx="88.46" cy="145" rx="5" ry="5" fill="#ff6666" stroke="rgb(0, 0, 0)" transform="rotate(50,88.46,145)" pointer-events="all"/></g><g><ellipse cx="87.46" cy="159" rx="5" ry="5" fill="#ff6666" stroke="rgb(0, 0, 0)" transform="rotate(50,87.46,159)" pointer-events="all"/></g><g><ellipse cx="70.46" cy="108" rx="5" ry="5" fill="#ff6666" stroke="rgb(0, 0, 0)" transform="rotate(50,70.46,108)" pointer-events="all"/></g><g><ellipse cx="69.46" cy="122" rx="5" ry="5" fill="#ff6666" stroke="rgb(0, 0, 0)" transform="rotate(50,69.46,122)" pointer-events="all"/></g><g><ellipse cx="81.46" cy="112" rx="5" ry="5" fill="#ff6666" stroke="rgb(0, 0, 0)" transform="rotate(50,81.46,112)" pointer-events="all"/></g><g><ellipse cx="80.46" cy="126" rx="5" ry="5" fill="#ff6666" stroke="rgb(0, 0, 0)" transform="rotate(50,80.46,126)" pointer-events="all"/></g><g><ellipse cx="78.46" cy="102" rx="5" ry="5" fill="#ff6666" stroke="rgb(0, 0, 0)" transform="rotate(50,78.46,102)" pointer-events="all"/></g><g/><g><ellipse cx="122.46" cy="120" rx="5" ry="5" fill="#ff6666" stroke="rgb(0, 0, 0)" transform="rotate(116,122.46,120)" pointer-events="all"/></g><g><ellipse cx="108.46" cy="125" rx="5" ry="5" fill="#ff6666" stroke="rgb(0, 0, 0)" transform="rotate(116,108.46,125)" pointer-events="all"/></g><g><ellipse cx="94.46" cy="130" rx="5" ry="5" fill="#ff6666" stroke="rgb(0, 0, 0)" transform="rotate(116,94.46,130)" pointer-events="all"/></g><g><ellipse cx="81.46" cy="134" rx="5" ry="5" fill="#ff6666" stroke="rgb(0, 0, 0)" transform="rotate(116,81.46,134)" pointer-events="all"/></g><g><ellipse cx="68.46" cy="139" rx="5" ry="5" fill="#ff6666" stroke="rgb(0, 0, 0)" transform="rotate(116,68.46,139)" pointer-events="all"/></g><g><ellipse cx="108.46" cy="103" rx="5" ry="5" fill="#ff6666" stroke="rgb(0, 0, 0)" transform="rotate(116,108.46,103)" pointer-events="all"/></g><g><ellipse cx="95.46" cy="107" rx="5" ry="5" fill="#ff6666" stroke="rgb(0, 0, 0)" transform="rotate(116,95.46,107)" pointer-events="all"/></g><g><ellipse cx="109.46" cy="114" rx="5" ry="5" fill="#ff6666" stroke="rgb(0, 0, 0)" transform="rotate(116,109.46,114)" pointer-events="all"/></g><g><ellipse cx="95.46" cy="118" rx="5" ry="5" fill="#ff6666" stroke="rgb(0, 0, 0)" transform="rotate(116,95.46,118)" pointer-events="all"/></g><g><ellipse cx="117.46" cy="107" rx="5" ry="5" fill="#ff6666" stroke="rgb(0, 0, 0)" transform="rotate(116,117.46,107)" pointer-events="all"/></g><g><ellipse cx="65.46" cy="94" rx="5" ry="5" fill="#ff6666" stroke="rgb(0, 0, 0)" transform="rotate(50,65.46,94)" pointer-events="all"/></g><g><ellipse cx="63.46" cy="108" rx="5" ry="5" fill="#ff6666" stroke="rgb(0, 0, 0)" transform="rotate(50,63.46,108)" pointer-events="all"/></g><g><ellipse cx="62.46" cy="122" rx="5" ry="5" fill="#ff6666" stroke="rgb(0, 0, 0)" transform="rotate(50,62.46,122)" pointer-events="all"/></g><g><ellipse cx="61.46" cy="136" rx="5" ry="5" fill="#ff6666" stroke="rgb(0, 0, 0)" transform="rotate(50,61.46,136)" pointer-events="all"/></g><g><ellipse cx="60.46" cy="150" rx="5" ry="5" fill="#ff6666" stroke="rgb(0, 0, 0)" transform="rotate(50,60.46,150)" pointer-events="all"/></g><g><ellipse cx="43.46" cy="99" rx="5" ry="5" fill="#ff6666" stroke="rgb(0, 0, 0)" transform="rotate(50,43.46,99)" pointer-events="all"/></g><g><ellipse cx="42.46" cy="113" rx="5" ry="5" fill="#ff6666" stroke="rgb(0, 0, 0)" transform="rotate(50,42.46,113)" pointer-events="all"/></g><g><ellipse cx="54.46" cy="103" rx="5" ry="5" fill="#ff6666" stroke="rgb(0, 0, 0)" transform="rotate(50,54.46,103)" pointer-events="all"/></g><g><ellipse cx="52.46" cy="117" rx="5" ry="5" fill="#ff6666" stroke="rgb(0, 0, 0)" transform="rotate(50,52.46,117)" pointer-events="all"/></g><g><ellipse cx="50.46" cy="92" rx="5" ry="5" fill="#ff6666" stroke="rgb(0, 0, 0)" transform="rotate(50,50.46,92)" pointer-events="all"/></g><g/><g><ellipse cx="95.46" cy="110" rx="5" ry="5" fill="#ff6666" stroke="rgb(0, 0, 0)" transform="rotate(116,95.46,110)" pointer-events="all"/></g><g><ellipse cx="81.46" cy="115" rx="5" ry="5" fill="#ff6666" stroke="rgb(0, 0, 0)" transform="rotate(116,81.46,115)" pointer-events="all"/></g><g><ellipse cx="67.46" cy="120" rx="5" ry="5" fill="#ff6666" stroke="rgb(0, 0, 0)" transform="rotate(116,67.46,120)" pointer-events="all"/></g><g><ellipse cx="54.46" cy="124" rx="5" ry="5" fill="#ff6666" stroke="rgb(0, 0, 0)" transform="rotate(116,54.46,124)" pointer-events="all"/></g><g><ellipse cx="41.46" cy="129" rx="5" ry="5" fill="#ff6666" stroke="rgb(0, 0, 0)" transform="rotate(116,41.46,129)" pointer-events="all"/></g><g><ellipse cx="81.46" cy="93" rx="5" ry="5" fill="#ff6666" stroke="rgb(0, 0, 0)" transform="rotate(116,81.46,93)" pointer-events="all"/></g><g><ellipse cx="68.46" cy="97" rx="5" ry="5" fill="#ff6666" stroke="rgb(0, 0, 0)" transform="rotate(116,68.46,97)" pointer-events="all"/></g><g><ellipse cx="82.46" cy="104" rx="5" ry="5" fill="#ff6666" stroke="rgb(0, 0, 0)" transform="rotate(116,82.46,104)" pointer-events="all"/></g><g><ellipse cx="68.46" cy="108" rx="5" ry="5" fill="#ff6666" stroke="rgb(0, 0, 0)" transform="rotate(116,68.46,108)" pointer-events="all"/></g><g><ellipse cx="90.46" cy="97" rx="5" ry="5" fill="#ff6666" stroke="rgb(0, 0, 0)" transform="rotate(116,90.46,97)" pointer-events="all"/></g><g/><g><ellipse cx="49.4" cy="44.73" rx="5" ry="5" fill="#ff6666" stroke="rgb(0, 0, 0)" transform="rotate(56,49.4,44.73)" pointer-events="all"/></g><g><ellipse cx="46.4" cy="58.73" rx="5" ry="5" fill="#ff6666" stroke="rgb(0, 0, 0)" transform="rotate(56,46.4,58.73)" pointer-events="all"/></g><g><ellipse cx="43.4" cy="71.73" rx="5" ry="5" fill="#ff6666" stroke="rgb(0, 0, 0)" transform="rotate(56,43.4,71.73)" pointer-events="all"/></g><g><ellipse cx="41.4" cy="85.73" rx="5" ry="5" fill="#ff6666" stroke="rgb(0, 0, 0)" transform="rotate(56,41.4,85.73)" pointer-events="all"/></g><g><ellipse cx="27.4" cy="47.73" rx="5" ry="5" fill="#ff6666" stroke="rgb(0, 0, 0)" transform="rotate(56,27.4,47.73)" pointer-events="all"/></g><g><ellipse cx="24.4" cy="60.73" rx="5" ry="5" fill="#ff6666" stroke="rgb(0, 0, 0)" transform="rotate(56,24.4,60.73)" pointer-events="all"/></g><g><ellipse cx="37.4" cy="52.73" rx="5" ry="5" fill="#ff6666" stroke="rgb(0, 0, 0)" transform="rotate(56,37.4,52.73)" pointer-events="all"/></g><g><ellipse cx="34.4" cy="66.73" rx="5" ry="5" fill="#ff6666" stroke="rgb(0, 0, 0)" transform="rotate(56,34.4,66.73)" pointer-events="all"/></g><g><ellipse cx="35.4" cy="41.73" rx="5" ry="5" fill="#ff6666" stroke="rgb(0, 0, 0)" transform="rotate(56,35.4,41.73)" pointer-events="all"/></g><g><ellipse cx="77.4" cy="63.73" rx="5" ry="5" fill="#ff6666" stroke="rgb(0, 0, 0)" transform="rotate(122,77.4,63.73)" pointer-events="all"/></g><g><ellipse cx="63.4" cy="67.73" rx="5" ry="5" fill="#ff6666" stroke="rgb(0, 0, 0)" transform="rotate(122,63.4,67.73)" pointer-events="all"/></g><g><ellipse cx="49.4" cy="70.73" rx="5" ry="5" fill="#ff6666" stroke="rgb(0, 0, 0)" transform="rotate(122,49.4,70.73)" pointer-events="all"/></g><g><ellipse cx="35.4" cy="73.73" rx="5" ry="5" fill="#ff6666" stroke="rgb(0, 0, 0)" transform="rotate(122,35.4,73.73)" pointer-events="all"/></g><g><ellipse cx="65.4" cy="45.73" rx="5" ry="5" fill="#ff6666" stroke="rgb(0, 0, 0)" transform="rotate(122,65.4,45.73)" pointer-events="all"/></g><g><ellipse cx="51.4" cy="48.73" rx="5" ry="5" fill="#ff6666" stroke="rgb(0, 0, 0)" transform="rotate(122,51.4,48.73)" pointer-events="all"/></g><g><ellipse cx="64.4" cy="56.73" rx="5" ry="5" fill="#ff6666" stroke="rgb(0, 0, 0)" transform="rotate(122,64.4,56.73)" pointer-events="all"/></g><g><ellipse cx="51.4" cy="59.73" rx="5" ry="5" fill="#ff6666" stroke="rgb(0, 0, 0)" transform="rotate(122,51.4,59.73)" pointer-events="all"/></g><g><ellipse cx="73.4" cy="50.73" rx="5" ry="5" fill="#ff6666" stroke="rgb(0, 0, 0)" transform="rotate(122,73.4,50.73)" pointer-events="all"/></g><g><ellipse cx="22.4" cy="31.73" rx="5" ry="5" fill="#ff6666" stroke="rgb(0, 0, 0)" transform="rotate(56,22.4,31.73)" pointer-events="all"/></g><g><ellipse cx="20.4" cy="45.73" rx="5" ry="5" fill="#ff6666" stroke="rgb(0, 0, 0)" transform="rotate(56,20.4,45.73)" pointer-events="all"/></g><g><ellipse cx="17.4" cy="59.73" rx="5" ry="5" fill="#ff6666" stroke="rgb(0, 0, 0)" transform="rotate(56,17.4,59.73)" pointer-events="all"/></g><g><ellipse cx="10.4" cy="39.73" rx="5" ry="5" fill="#ff6666" stroke="rgb(0, 0, 0)" transform="rotate(56,10.4,39.73)" pointer-events="all"/></g><g><ellipse cx="50.4" cy="51.73" rx="5" ry="5" fill="#ff6666" stroke="rgb(0, 0, 0)" transform="rotate(122,50.4,51.73)" pointer-events="all"/></g><g><ellipse cx="37.4" cy="54.73" rx="5" ry="5" fill="#ff6666" stroke="rgb(0, 0, 0)" transform="rotate(122,37.4,54.73)" pointer-events="all"/></g><g><ellipse cx="22.4" cy="58.73" rx="5" ry="5" fill="#ff6666" stroke="rgb(0, 0, 0)" transform="rotate(122,22.4,58.73)" pointer-events="all"/></g><g><ellipse cx="39.4" cy="32.73" rx="5" ry="5" fill="#ff6666" stroke="rgb(0, 0, 0)" transform="rotate(122,39.4,32.73)" pointer-events="all"/></g><g><ellipse cx="25.4" cy="35.73" rx="5" ry="5" fill="#ff6666" stroke="rgb(0, 0, 0)" transform="rotate(122,25.4,35.73)" pointer-events="all"/></g><g><ellipse cx="38.4" cy="44.73" rx="5" ry="5" fill="#ff6666" stroke="rgb(0, 0, 0)" transform="rotate(122,38.4,44.73)" pointer-events="all"/></g><g><ellipse cx="24.4" cy="47.73" rx="5" ry="5" fill="#ff6666" stroke="rgb(0, 0, 0)" transform="rotate(122,24.4,47.73)" pointer-events="all"/></g><g><ellipse cx="47.4" cy="38.73" rx="5" ry="5" fill="#ff6666" stroke="rgb(0, 0, 0)" transform="rotate(122,47.4,38.73)" pointer-events="all"/></g></g></svg>